<?xml version="1.0" encoding="UTF-8"?>
<svg xmlns="http://www.w3.org/2000/svg" width="80" height="80" viewBox="0 0 80 80" fill="none">
  <path d="M46.25 25H63.75C65.8175 25 67.5 23.3175 67.5 21.25V13.75C67.5 11.6825 65.8175 10 63.75 10H46.25C44.1825 10 42.5 11.6825 42.5 13.75V21.25C42.5 23.3175 44.1825 25 46.25 25ZM45 13.75C45 13.0612 45.5612 12.5 46.25 12.5H63.75C64.4388 12.5 65 13.0612 65 13.75V21.25C65 21.9388 64.4388 22.5 63.75 22.5H46.25C45.5612 22.5 45 21.9388 45 21.25V13.75ZM16.25 25H33.75C35.8175 25 37.5 23.3175 37.5 21.25V13.75C37.5 11.6825 35.8175 10 33.75 10H16.25C14.1825 10 12.5 11.6825 12.5 13.75V21.25C12.5 23.3175 14.1825 25 16.25 25ZM15 13.75C15 13.0612 15.5612 12.5 16.25 12.5H33.75C34.4387 12.5 35 13.0612 35 13.75V21.25C35 21.9388 34.4387 22.5 33.75 22.5H16.25C15.5612 22.5 15 21.9388 15 21.25V13.75Z" fill="#1D1D1B"></path>
  <path d="M75 11.25C75 7.80375 72.1963 5 68.75 5H11.25C7.80375 5 5 7.80375 5 11.25V68.75C5 72.1963 7.80375 75 11.25 75H68.75C72.1963 75 75 72.1963 75 68.75V11.25ZM11.25 7.5H68.75C70.8175 7.5 72.5 9.1825 72.5 11.25V42.2475L7.5 30.21V11.25C7.5 9.1825 9.1825 7.5 11.25 7.5ZM70.275 44.3775L54.9388 53.5788L15.0637 34.1525L70.275 44.3775ZM72.5 68.75C72.5 70.8175 70.8175 72.5 68.75 72.5H11.25C9.1825 72.5 7.5 70.8175 7.5 68.75V33.25L54.4525 56.1237C54.6397 56.2149 54.8468 56.2579 55.0548 56.2487C55.2628 56.2395 55.4653 56.1785 55.6437 56.0712L72.5 45.9575V68.75Z" fill="#1D1D1B"></path>
</svg>
