<?xml version="1.0" encoding="UTF-8"?>
<svg xmlns="http://www.w3.org/2000/svg" width="80" height="80" viewBox="0 0 80 80" fill="none">
  <path d="M73.7486 24.9825L60.2936 24.9812L73.8899 11.385C77.4086 7.90499 72.0436 2.60249 68.6024 6.08624L49.7061 24.9812H29.9999C28.3474 24.9812 28.3449 27.4812 29.9999 27.4812H32.6474L34.2186 39.995C27.2424 39.51 20.7236 50.28 5.91737 54.3387C5.74846 54.3851 5.59118 54.4664 5.45572 54.5774C5.32025 54.6884 5.20963 54.8267 5.13102 54.9832C5.05242 55.1397 5.00757 55.311 4.99941 55.4859C4.99124 55.6609 5.01993 55.8356 5.08362 55.9987C7.66987 62.6387 12.3436 67.8862 18.9186 71.2337C19.4411 71.5 20.0824 71.3637 20.4549 70.9087L24.3999 66.0612C23.9886 68.0862 23.8499 70.355 24.2961 72.6912C24.3395 72.9191 24.4455 73.1303 24.6023 73.3012C24.7591 73.4721 24.9604 73.5959 25.1836 73.6587C29.7974 74.9662 33.2786 74.9812 33.4249 74.9812C33.6236 74.9812 33.8195 74.9337 33.9963 74.8427C34.173 74.7518 34.3256 74.62 34.4412 74.4583C34.5568 74.2966 34.6322 74.1097 34.6611 73.913C34.69 73.7163 34.6716 73.5156 34.6074 73.3275C32.3199 66.6287 34.0936 60.8162 36.2074 55.9112L36.4699 58.0225C36.4711 58.0325 36.4661 58.0425 36.4674 58.0525L37.5086 66.3862C37.5464 66.6885 37.6932 66.9666 37.9216 67.1682C38.1499 67.3698 38.444 67.4812 38.7486 67.4812H64.9986C65.3032 67.4812 65.5973 67.3698 65.8257 67.1682C66.054 66.9666 66.2008 66.6885 66.2386 66.3862L71.1024 27.4812H73.7486C75.4036 27.4825 75.4011 24.9825 73.7486 24.9825ZM70.3761 7.84874C71.5136 6.69374 73.3011 8.45124 72.1274 9.61249L39.1261 42.6125C38.6249 41.94 37.9611 41.4237 37.2386 40.985L70.3761 7.84874ZM47.2061 27.4812L36.5049 38.1812L35.1649 27.4812H47.2061ZM36.5461 43.5337C38.2249 44.83 37.4961 47.015 35.7374 50.8825C30.8686 49.4325 29.5099 45.805 29.1499 44.2462C32.2411 42.3237 34.3311 41.83 36.5461 43.5337ZM31.7149 72.3737C29.9988 72.1991 28.2985 71.8945 26.6286 71.4625C25.8486 65.4575 29.3524 60.0775 29.7699 59.46C29.7711 59.4587 29.7736 59.4575 29.7724 59.4562L29.7736 59.4537C30.7374 58.0175 28.5511 56.6612 27.6786 58.08L19.1636 68.5337C18.1739 67.9788 17.2196 67.3631 16.3061 66.69L23.3811 59.615C24.5511 58.445 22.7824 56.6787 21.6136 57.8475L14.3386 65.1225C13.3679 64.2485 12.4672 63.2998 11.6449 62.285C17.2949 59.0275 26.6199 51.2975 27.0474 50.9425C28.3211 49.8862 26.7199 47.9637 25.4499 49.0212C25.3449 49.1075 15.5374 57.2412 10.1449 60.27C9.30075 59.0293 8.56352 57.7192 7.94112 56.3537C16.1936 53.7987 21.3924 49.6075 26.9861 45.6875C27.7374 47.9512 29.6949 51.565 34.6849 53.18C32.3836 58.2212 29.7786 64.7525 31.7149 72.3737ZM63.8949 64.9825H39.8511L38.9499 57.7687C38.9486 57.7587 38.9536 57.7487 38.9524 57.7387L38.1824 51.5525C39.2261 49.2425 40.0524 47.1162 40.0061 45.2675L57.7936 27.4812L68.5836 27.4825L63.8949 64.9825Z" fill="#1D1D1B"></path>
  <path d="M61.3372 34.5187L56.6521 46.2325H42.4984C40.8434 46.2325 40.8447 48.7325 42.4984 48.7325H57.4984C58.0097 48.7325 58.4684 48.4212 58.6597 47.9462L63.6597 35.4475C64.2747 33.9087 61.9484 32.9875 61.3372 34.5187ZM48.7484 56.2325H48.1234C47.9581 56.2318 47.7997 56.1657 47.6831 56.0486C47.5664 55.9314 47.5009 55.7728 47.5009 55.6075V54.9825C47.5009 53.3275 45.0009 53.3287 45.0009 54.9825V55.6075C45.0009 55.9512 44.7197 56.2325 44.3759 56.2325H43.7446C43.4131 56.233 43.0954 56.3652 42.8613 56.5999C42.6273 56.8347 42.496 57.1529 42.4965 57.4844C42.497 57.8159 42.6292 58.1336 42.864 58.3677C43.0987 58.6018 43.4169 58.733 43.7484 58.7325H44.3734C44.7172 58.7325 44.9984 59.0137 44.9984 59.3575V59.9825C44.9984 61.6375 47.4984 61.6362 47.4984 59.9825V59.3575C47.4984 59.1922 47.5639 59.0336 47.6806 58.9164C47.7972 58.7993 47.9556 58.7332 48.1209 58.7325H48.7484C50.4034 58.7325 50.4009 56.2325 48.7484 56.2325ZM14.9972 38.7325H15.6222C15.7879 38.7325 15.9469 38.7983 16.0641 38.9156C16.1813 39.0328 16.2472 39.1917 16.2472 39.3575V39.9825C16.2472 41.6375 18.7472 41.6375 18.7472 39.9825V39.3575C18.7471 39.1922 18.8127 39.0336 18.9293 38.9164C19.046 38.7993 19.2043 38.7332 19.3697 38.7325H19.9972C21.6497 38.7325 21.6522 36.2325 19.9972 36.2325H19.3722C19.2068 36.2318 19.0485 36.1657 18.9318 36.0486C18.8152 35.9314 18.7497 35.7728 18.7497 35.6075V34.9825C18.7497 33.33 16.2497 33.3275 16.2497 34.9825V35.6075C16.2497 35.7733 16.1838 35.9322 16.0666 36.0494C15.9494 36.1666 15.7904 36.2325 15.6247 36.2325H14.9934C13.3409 36.2387 13.3472 38.7325 14.9972 38.7325Z" fill="#1D1D1B"></path>
</svg>
