<?xml version="1.0" encoding="UTF-8"?>
<svg xmlns="http://www.w3.org/2000/svg" width="80" height="80" viewBox="0 0 80 80" fill="none">
  <path d="M68.75 13.75H11.25C7.80375 13.75 5 16.5538 5 20V45C5 48.4463 7.80375 51.25 11.25 51.25H68.75C72.1963 51.25 75 48.4463 75 45V20C75 16.5538 72.1963 13.75 68.75 13.75ZM66.25 48.75H13.75V45C13.75 44.3113 14.3112 43.75 15 43.75H65C65.6888 43.75 66.25 44.3113 66.25 45V48.75ZM72.5 45C72.5 47.0675 70.8175 48.75 68.75 48.75V45C68.75 42.9325 67.0675 41.25 65 41.25H15C12.9325 41.25 11.25 42.9325 11.25 45V48.75C9.1825 48.75 7.5 47.0675 7.5 45V20C7.5 17.9325 9.1825 16.25 11.25 16.25H68.75C70.8175 16.25 72.5 17.9325 72.5 20V45Z" fill="#1D1D1B"></path>
  <path d="M46.2499 21.25H33.7499C32.0974 21.25 32.0949 23.75 33.7499 23.75H46.2499C47.9024 23.75 47.9049 21.25 46.2499 21.25ZM40.8199 55.9937C42.1349 54.9912 40.6187 53.0013 39.3037 54.0063C36.1262 56.43 37.9037 59.18 38.9649 60.8225C40.2599 62.8263 40.3049 63.2425 39.3037 64.0063C37.9887 65.0088 39.5049 66.9962 40.8199 65.9937C43.8112 63.7125 42.0924 61.0537 41.0649 59.465C39.7812 57.4787 39.6049 56.9212 40.8199 55.9937ZM50.8199 55.9937C52.1362 54.9912 50.6174 53.0013 49.3037 54.0063C46.1262 56.43 47.9037 59.18 48.9649 60.8225C50.2599 62.8263 50.3049 63.2425 49.3037 64.0063C47.9837 65.0125 49.5199 66.985 50.8199 65.9937C53.8112 63.7125 52.0924 61.0537 51.0649 59.465C49.7824 57.4787 49.6049 56.9212 50.8199 55.9937ZM60.8199 55.9937C62.1349 54.9912 60.6174 53.0025 59.3037 54.0063C56.1262 56.43 57.9037 59.18 58.9649 60.8225C60.2599 62.8263 60.3049 63.2425 59.3037 64.0063C57.9837 65.0125 59.5199 66.985 60.8199 65.9937C63.8112 63.7125 62.0924 61.0537 61.0649 59.465C59.7824 57.4787 59.6049 56.9212 60.8199 55.9937ZM20.8199 55.9937C22.1362 54.9912 20.6162 53.0013 19.3037 54.0063C16.1262 56.43 17.9037 59.18 18.9649 60.8225C20.2599 62.8263 20.3049 63.2425 19.3037 64.0063C17.9762 65.0188 19.5174 66.9875 20.8199 65.9937C23.8112 63.7125 22.0924 61.0537 21.0649 59.465C19.7812 57.4787 19.6049 56.9212 20.8199 55.9937ZM30.8199 55.9937C32.1349 54.9912 30.6174 53.0025 29.3037 54.0063C26.1262 56.43 27.9037 59.18 28.9649 60.8225C30.2599 62.8263 30.3049 63.2425 29.3037 64.0063C27.9837 65.0125 29.5199 66.985 30.8199 65.9937C33.8112 63.7125 32.0924 61.0537 31.0649 59.465C29.7812 57.4787 29.6049 56.9212 30.8199 55.9937Z" fill="#1D1D1B"></path>
</svg>
