<?xml version="1.0" encoding="UTF-8"?>
<svg xmlns="http://www.w3.org/2000/svg" width="80" height="80" viewBox="0 0 80 80" fill="none">
  <path d="M30.099 44.7525C30.099 44.4374 29.9738 44.1352 29.751 43.9123C29.5282 43.6895 29.226 43.5644 28.9109 43.5644H15.7782C16.3402 42.4603 16.6332 41.2389 16.6332 40C16.6332 38.7611 16.3402 37.5397 15.7782 36.4356H38.4158C38.7309 36.4356 39.0332 36.3105 39.256 36.0877C39.4788 35.8648 39.604 35.5626 39.604 35.2475C39.604 34.9324 39.4788 34.6302 39.256 34.4074C39.0332 34.1846 38.7309 34.0594 38.4158 34.0594H7.52475C5.08515 34.0594 3.16832 36.6653 3.16832 40C3.16832 43.3347 5.08515 45.9406 7.52475 45.9406H28.9109C29.226 45.9406 29.5282 45.8154 29.751 45.5926C29.9738 45.3698 30.099 45.0676 30.099 44.7525ZM7.52475 36.4356C7.77097 36.4654 8.00675 36.5526 8.21312 36.6902C8.41948 36.8278 8.59066 37.0119 8.71287 37.2277C9.22662 38.0612 9.49867 39.0209 9.49867 40C9.49867 40.9791 9.22662 41.9388 8.71287 42.7723C8.59066 42.9881 8.41948 43.1722 8.21312 43.3098C8.00675 43.4474 7.77097 43.5346 7.52475 43.5644C7.27853 43.5346 7.04275 43.4474 6.83638 43.3098C6.63002 43.1722 6.45884 42.9881 6.33663 42.7723C5.82289 41.9388 5.55084 40.9791 5.55084 40C5.55084 39.0209 5.82289 38.0612 6.33663 37.2277C6.45884 37.0119 6.63002 36.8278 6.83638 36.6902C7.04275 36.5526 7.27853 36.4654 7.52475 36.4356ZM11.0257 36.4356H12.2772C13.2119 36.4356 14.2574 37.901 14.2574 40C14.2574 42.099 13.2119 43.5644 12.2772 43.5644H11.0257C11.5877 42.4603 11.8807 41.2389 11.8807 40C11.8807 38.7611 11.5877 37.5397 11.0257 36.4356Z" fill="black"></path>
  <path d="M73.2673 34.0594H50.297C49.9819 34.0594 49.6797 34.1846 49.4569 34.4074C49.2341 34.6302 49.1089 34.9324 49.1089 35.2475C49.1089 35.5626 49.2341 35.8648 49.4569 36.0877C49.6797 36.3105 49.9819 36.4356 50.297 36.4356H51.0891C52.0238 36.4356 53.0693 37.901 53.0693 40C53.0693 42.099 52.0238 43.5644 51.0891 43.5644H40.7921C40.477 43.5644 40.1748 43.6895 39.952 43.9123C39.7291 44.1352 39.604 44.4374 39.604 44.7525C39.604 45.0676 39.7291 45.3698 39.952 45.5926C40.1748 45.8154 40.477 45.9406 40.7921 45.9406H73.2673C75.7069 45.9406 77.6238 43.3347 77.6238 40C77.6238 36.6653 75.7069 34.0594 73.2673 34.0594ZM73.2673 43.5644H54.5901C55.1521 42.4603 55.4451 41.2389 55.4451 40C55.4451 38.7611 55.1521 37.5397 54.5901 36.4356H73.2673C74.202 36.4356 75.2475 37.901 75.2475 40C75.2475 42.099 74.202 43.5644 73.2673 43.5644Z" fill="black"></path>
  <path d="M5.54456 40C5.51514 40.9838 5.7919 41.9525 6.33663 42.7723C6.45885 42.9881 6.63002 43.1722 6.83639 43.3098C7.04275 43.4474 7.27853 43.5346 7.52475 43.5644C7.77097 43.5346 8.00676 43.4474 8.21312 43.3098C8.41948 43.1722 8.59066 42.9881 8.71287 42.7723C9.22662 41.9388 9.49867 40.9791 9.49867 40C9.49867 39.0209 9.22662 38.0612 8.71287 37.2277C8.59066 37.0119 8.41948 36.8278 8.21312 36.6902C8.00676 36.5526 7.77097 36.4654 7.52475 36.4356C7.27853 36.4654 7.04275 36.5526 6.83639 36.6902C6.63002 36.8278 6.45885 37.0119 6.33663 37.2277C5.7919 38.0475 5.51514 39.0162 5.54456 40Z" fill="white"></path>
  <path d="M67.7703 12.2297C67.5475 12.0072 67.2455 11.8822 66.9307 11.8822C66.6158 11.8822 66.3139 12.0072 66.0911 12.2297L13.0218 65.299C12.9051 65.4078 12.8114 65.539 12.7465 65.6847C12.6815 65.8304 12.6466 65.9878 12.6438 66.1473C12.641 66.3068 12.6703 66.4653 12.7301 66.6132C12.7899 66.7612 12.8788 66.8956 12.9916 67.0084C13.1044 67.1212 13.2388 67.2101 13.3868 67.2699C13.5347 67.3297 13.6932 67.359 13.8527 67.3562C14.0122 67.3534 14.1696 67.3185 14.3153 67.2535C14.461 67.1886 14.5922 67.0949 14.701 66.9782L67.7703 13.9089C67.9928 13.6861 68.1178 13.3842 68.1178 13.0693C68.1178 12.7545 67.9928 12.4525 67.7703 12.2297Z" fill="black"></path>
  <path d="M7.52475 32.4752H13.0693C13.3844 32.4752 13.6866 32.3501 13.9094 32.1273C14.1322 31.9044 14.2574 31.6022 14.2574 31.2871V29.703C14.2595 27.918 14.9695 26.2067 16.2317 24.9446C17.4939 23.6824 19.2051 22.9724 20.9901 22.9703H24.1584C26.5736 22.9682 28.8893 22.0078 30.5971 20.3C32.3049 18.5922 33.2652 16.2766 33.2673 13.8614V12.2772C33.2729 12.2113 33.2729 12.1451 33.2673 12.0792C33.2729 12.0133 33.2729 11.9471 33.2673 11.8812C33.2673 10.8308 32.8501 9.82348 32.1074 9.08076C31.3646 8.33805 30.3573 7.92079 29.3069 7.92079C28.2566 7.92079 27.2492 8.33805 26.5065 9.08076C25.7638 9.82348 25.3465 10.8308 25.3465 11.8812C25.341 11.9471 25.341 12.0133 25.3465 12.0792C25.341 12.1451 25.341 12.2113 25.3465 12.2772V13.8614C25.3444 15.6464 24.6344 17.3576 23.3723 18.6198C22.1101 19.882 20.3988 20.592 18.6139 20.5941H15.4455C13.0304 20.5962 10.7147 21.5565 9.00689 23.2643C7.29909 24.9721 6.33873 27.2878 6.33663 29.703V31.2871C6.33663 31.6022 6.46181 31.9044 6.68463 32.1273C6.90744 32.3501 7.20964 32.4752 7.52475 32.4752ZM27.7228 13.8614V12.2772C27.7283 12.2113 27.7283 12.1451 27.7228 12.0792C27.7283 12.0133 27.7283 11.9471 27.7228 11.8812C27.7228 11.461 27.8897 11.0581 28.1868 10.761C28.4838 10.4639 28.8868 10.297 29.3069 10.297C29.7271 10.297 30.13 10.4639 30.4271 10.761C30.7242 11.0581 30.8911 11.461 30.8911 11.8812C30.8855 11.9471 30.8855 12.0133 30.8911 12.0792C30.8855 12.1451 30.8855 12.2113 30.8911 12.2772V13.8614C30.896 15.5469 30.2693 17.1731 29.1344 18.4194C27.9996 19.6657 26.439 20.4416 24.7604 20.5941C25.6966 19.7407 26.4439 18.7008 26.9541 17.5412C27.4643 16.3817 27.7261 15.1282 27.7228 13.8614ZM8.71287 29.703C8.70794 28.0174 9.33468 26.3912 10.4695 25.1449C11.6044 23.8987 13.1649 23.1228 14.8436 22.9703C13.9073 23.8237 13.1601 24.8636 12.6499 26.0231C12.1397 27.1827 11.8778 28.4362 11.8812 29.703V30.099H8.71287V29.703Z" fill="black"></path>
</svg>
