<?xml version="1.0" encoding="UTF-8"?>
<svg xmlns="http://www.w3.org/2000/svg" width="80" height="80" viewBox="0 0 80 80" fill="none">
  <path d="M58.75 12.5V11.25C58.75 7.80375 55.9463 5 52.5 5H25C21.5538 5 18.75 7.80375 18.75 11.25V12.5C15.3038 12.5 12.5 15.3038 12.5 18.75V73.75C12.5 74.0815 12.6317 74.3995 12.8661 74.6339C13.1005 74.8683 13.4185 75 13.75 75H63.75C64.0815 75 64.3995 74.8683 64.6339 74.6339C64.8683 74.3995 65 74.0815 65 73.75V18.75C65 15.3038 62.1963 12.5 58.75 12.5ZM62.5 18.75V63.75H58.75V15C60.8175 15 62.5 16.6825 62.5 18.75ZM47.015 63.75C47.1037 63.62 47.1863 63.4875 47.2713 63.3563C49.165 62.7963 55.2238 60.3688 55.2238 52.1763C55.2238 48.9075 52.1437 47.5812 49.6025 48.6412V48.55C49.6025 48.2185 49.4708 47.9005 49.2364 47.6661C49.002 47.4317 48.684 47.3 48.3525 47.3H27.915C27.5835 47.3 27.2655 47.4317 27.0311 47.6661C26.7967 47.9005 26.665 48.2185 26.665 48.55V55.3775C26.665 58.4112 27.5738 61.3025 29.2525 63.7513H21.25V27.5H31.25V32.5C31.25 32.8315 31.3817 33.1495 31.6161 33.3839C31.8505 33.6183 32.1685 33.75 32.5 33.75H33.75V38.75C33.75 39.0815 33.8817 39.3995 34.1161 39.6339C34.3505 39.8683 34.6685 40 35 40H42.5C42.8315 40 43.1495 39.8683 43.3839 39.6339C43.6183 39.3995 43.75 39.0815 43.75 38.75V33.75H45C45.3315 33.75 45.6495 33.6183 45.8839 33.3839C46.1183 33.1495 46.25 32.8315 46.25 32.5V27.5H56.25V63.75H47.015ZM32.4525 63.75C30.3353 61.4761 29.1603 58.4832 29.165 55.3762V49.7988H47.1025V55.3762C47.1072 58.4832 45.9322 61.4761 43.815 63.75H32.4525ZM49.6025 51.8237C50.3563 50.46 52.7238 50.2775 52.7238 52.1763C52.7238 56.495 50.6838 58.755 48.8913 59.9125C49.9312 56.6562 49.5025 54.4975 49.6025 51.8237ZM43.75 27.5V31.25H33.75V27.5H43.75ZM36.25 33.75H41.25V37.5H36.25V33.75ZM26.25 7.5H51.25V13.75C51.25 14.4388 50.69 15 50 15H27.5C26.8112 15 26.25 14.4388 26.25 13.75V7.5ZM21.25 11.25C21.25 9.6225 22.2987 8.2475 23.75 7.73V13.75C23.75 15.8175 25.4325 17.5 27.5 17.5H50C52.0675 17.5 53.75 15.8175 53.75 13.75V7.73C55.2012 8.2475 56.25 9.6225 56.25 11.25V25H21.25V11.25ZM18.75 15V63.75H15V18.75C15 16.6825 16.6825 15 18.75 15ZM15 72.5V66.25H62.5V72.5H15Z" fill="#1D1D1B"></path>
</svg>
