<?xml version="1.0" encoding="UTF-8"?>
<svg xmlns="http://www.w3.org/2000/svg" width="80" height="80" viewBox="0 0 80 80" fill="none">
  <path d="M74.6337 29.1162C65.5324 20.0137 53.2312 15 39.9999 15C26.7687 15 14.4687 20.0137 5.36616 29.1162C4.19616 30.2862 5.96491 32.0525 7.13366 30.8838C15.7637 22.2538 27.4349 17.5 39.9999 17.5C52.5649 17.5 64.2374 22.2538 72.8662 30.8838C74.0187 32.0363 75.8187 30.3012 74.6337 29.1162ZM39.9999 41.02C37.014 41.0121 34.0561 41.5964 31.2975 42.7392C28.5389 43.8819 26.0343 45.5604 23.9287 47.6775C22.7587 48.8475 24.5274 50.6138 25.6962 49.445C29.5174 45.6238 34.5974 43.52 39.9999 43.52C45.4024 43.52 50.4824 45.625 54.3037 49.445C55.4562 50.5975 57.2562 48.8625 56.0712 47.6775C53.9655 45.5604 51.4609 43.8819 48.7023 42.7392C45.9437 41.5964 42.9858 41.0121 39.9999 41.02Z" fill="#1D1D1B"></path>
  <path d="M14.5161 38.1512C13.3461 39.3212 15.1148 41.0874 16.2836 39.9187C29.3611 26.8412 50.6386 26.8412 63.7161 39.9187C64.8836 41.0862 66.6536 39.3212 65.4836 38.1512C51.4323 24.0987 28.5673 24.0987 14.5161 38.1512ZM39.9998 52.4999C36.5536 52.4999 33.7498 55.3037 33.7498 58.7499C33.7498 62.1962 36.5536 64.9999 39.9998 64.9999C43.4461 64.9999 46.2498 62.1962 46.2498 58.7499C46.2498 55.3037 43.4461 52.4999 39.9998 52.4999ZM39.9998 62.4999C37.9323 62.4999 36.2498 60.8174 36.2498 58.7499C36.2498 56.6824 37.9323 54.9999 39.9998 54.9999C42.0673 54.9999 43.7498 56.6824 43.7498 58.7499C43.7498 60.8174 42.0673 62.4999 39.9998 62.4999Z" fill="#1D1D1B"></path>
</svg>
