<?xml version="1.0" encoding="UTF-8"?>
<svg xmlns="http://www.w3.org/2000/svg" width="184" height="88" viewBox="0 0 184 88" fill="none">
  <g clip-path="url(#clip0_209_1700)">
    <path d="M48.9044 15.8998C47.0224 7.733 42.3186 1.09231 41.6841 0.0078125C40.6616 1.53158 36.9188 7.39521 34.9961 13.9017C32.9301 21.1529 32.6234 27.5881 33.3394 33.926C34.0553 40.2638 36.7345 46.7699 36.7345 46.7699C38.1662 50.19 40.3139 53.8501 41.7049 55.6484C43.7498 53.0035 48.4544 45.1097 49.9273 34.8066C50.7448 29.0817 50.7656 24.0663 48.9044 15.8998ZM41.6841 53.614C40.7639 51.8868 39.3322 48.5967 39.1889 43.5146C39.1479 38.6032 41.1321 34.3998 41.7049 33.5187C42.2161 34.3998 43.9343 38.0599 44.1388 43.0751C44.2613 47.9886 42.6253 51.8521 41.6844 53.6143L41.6841 53.614ZM48.3521 29.7589C48.2909 32.8739 47.9227 36.1617 47.4319 38.1273C47.6159 34.7394 47.2069 29.9624 46.4092 26.233C45.6317 22.5057 43.423 16.2718 41.6434 13.3909C40.0072 16.1356 38.0027 21.5252 36.9393 26.1985C35.8958 30.878 35.8553 36.534 35.8553 38.2308C35.5688 36.8007 34.8733 31.7021 35.0778 26.5729C35.2416 22.3431 36.2233 17.9993 36.7755 16.0012C38.8617 9.32604 41.2141 5.05754 41.6434 4.3801C42.0936 5.05731 45.0592 10.3088 46.5932 15.8323C48.1271 21.3542 48.4339 26.6403 48.3521 29.7589Z" fill="#9E9E9E"></path>
    <path d="M44.8545 57.5507H30.5985V67.0663C30.619 67.054 30.6395 67.0399 30.6395 67.0276C33.9939 63.687 39.455 63.687 42.8091 67.0276C46.1635 70.3708 46.1635 75.7882 42.8091 79.129C42.7889 79.1434 42.7888 79.1552 42.7684 79.1675V79.1716C42.7479 79.1879 42.7274 79.2001 42.7069 79.2164C39.3732 82.5248 34.9756 84.1808 30.5985 84.1808C26.2009 84.1808 21.8035 82.5127 18.4491 79.1756C12.5379 73.2939 11.8426 64.1955 16.3425 57.5504C16.9559 56.6531 17.6514 55.7989 18.4491 55.0052C21.8035 51.6667 26.2009 49.9986 30.5985 49.9986V27.1138C13.704 27.1138 0 40.7413 0 57.5507C0 74.358 13.704 87.9855 30.5985 87.9855C39.414 87.9855 47.35 84.2786 52.9338 78.3522V57.5507H44.8545ZM71.0149 82.5574C71.0149 84.6877 70.7489 87.992 66.4536 87.992H61.3812C57.1064 87.992 56.8406 84.6877 56.8406 82.5574V62.9933C56.8406 60.8612 57.1066 57.5572 61.3812 57.5572H66.4536C70.7489 57.5572 71.0149 60.8612 71.0149 62.9933V67.2964H64.8786V62.3342C64.8786 61.8134 64.4901 61.3352 63.9174 61.3352C63.5697 61.3352 62.9559 61.5511 62.9559 62.3342V83.0887C62.9559 83.8697 63.5697 84.0875 63.9174 84.0875C64.4901 84.0875 64.8786 83.6097 64.8786 83.0889V76.4274H63.9584V73.0784H71.0149V82.5574ZM80.2186 76.5578L81.2619 61.3472H81.6094L82.6728 76.5576H80.2186V76.5578ZM73.4488 87.992H79.4414L79.9934 79.9068H82.8778L83.4505 87.992H89.4431L86.2522 57.5572H76.6395L73.4486 87.992M91.7138 84.1669L97.5838 61.3472H92.3275V57.5572H103.863V61.3391L98.0135 84.0895H104.231V87.992H91.7138V84.1669ZM113.231 73.8453V61.3308H114.008C114.683 61.3308 115.153 61.8945 115.153 62.8525V72.3236C115.153 73.2795 114.683 73.8451 114.008 73.8451H113.231V73.8453ZM107.095 87.992H113.231V77.6444H116.729C121.004 77.6444 121.269 74.3402 121.269 72.2099V62.9936C121.269 60.8614 121.003 57.5574 116.729 57.5574H107.095V87.9922M130.535 72.9366V61.3333H131.332C131.987 61.3333 132.457 61.8968 132.457 62.8532V71.4143C132.457 72.3711 131.987 72.9364 131.332 72.9364H130.535V72.9366ZM139.37 87.992L136.364 76.1225C138.532 75.2537 138.573 73.2513 138.573 72.4274V62.9933C138.573 60.8612 138.327 57.5572 134.032 57.5572H124.419V87.992H130.535V76.7307H130.985L133.071 87.992H139.37ZM150.702 83.0889C150.702 83.6114 150.313 84.0898 149.74 84.0898C149.393 84.0898 148.779 83.872 148.779 83.0889V62.3342C148.779 61.5511 149.393 61.3352 149.74 61.3352C150.313 61.3352 150.702 61.8134 150.702 62.3342V83.0887V83.0889ZM142.664 82.5574C142.664 84.6877 142.93 87.992 147.225 87.992H152.277C156.571 87.992 156.838 84.6877 156.838 82.5574V62.9933C156.838 60.8612 156.572 57.5572 152.277 57.5572H147.225C142.93 57.5572 142.664 60.8612 142.664 62.9933V82.5574ZM176.044 57.5572H184V87.992H177.884V68.9038H177.659L174.51 87.992H169.621L166.472 68.9038H166.246V87.992H160.131V57.5572H168.087L172.055 78.9483L176.044 57.5572Z" fill="#9E9E9E"></path>
  </g>
  <defs>
    <clipPath id="clip0_209_1700">
      <rect width="184" height="88" fill="white"></rect>
    </clipPath>
  </defs>
</svg>
