<svg width="138" height="114" viewBox="0 0 138 114" fill="none" xmlns="http://www.w3.org/2000/svg">
<path fill-rule="evenodd" clip-rule="evenodd" d="M82.6818 0.187869C82.5636 0.293183 81.6883 0.717402 80.7369 1.13022C79.1018 1.84007 79 1.92692 78.8744 2.717C78.8015 3.17655 78.7393 28.3482 78.7363 58.6537L78.7311 113.755L82.9751 113.693L87.2193 113.631L87.2638 91.8652C87.2946 76.8662 87.3824 70.0748 87.5467 70.0196C87.6778 69.9756 87.785 69.7944 87.785 69.6168C87.785 69.4112 88.0274 69.2938 88.4517 69.2938C89.1476 69.2938 89.8121 68.9369 95.3048 65.6124C97.1379 64.5027 98.6911 63.595 98.756 63.595C98.821 63.595 98.8742 74.881 98.8742 88.675V113.755L102.891 113.693L106.908 113.631L107.021 79.3406L107.134 45.0504L111.152 42.6403C113.362 41.3145 115.982 39.7683 116.975 39.2042L118.779 38.1784L118.784 31.3275L118.789 24.4766L118.054 23.7791C117.473 23.2277 113.274 20.3213 109.356 17.758C109.085 17.5802 107.067 16.2038 104.873 14.6993C102.679 13.1948 100.485 11.7074 99.9964 11.394C98.8943 10.6867 92.4427 6.34144 91.5191 5.68471C87.3942 2.75142 83.2937 0.00824283 83.0212 3.65525e-05C82.9527 -0.00201502 82.7999 0.0825553 82.6818 0.187869ZM76.1301 3.57638C75.4005 3.75031 72.298 5.28078 72.1166 5.5566C72.0251 5.69542 71.9489 30.0982 71.9468 59.7846L71.9434 113.76L74.3762 113.695L76.8091 113.631V58.5231C76.8091 28.2141 76.7581 3.42752 76.6959 3.44211C76.6337 3.4567 76.3791 3.51711 76.1301 3.57638ZM67.1909 7.61615L65.041 8.61777L64.984 61.0404L64.9269 113.463L65.4366 113.601C65.717 113.676 66.7745 113.74 67.7868 113.741C69.5056 113.744 69.6367 113.711 69.7641 113.232C69.9456 112.549 69.9469 8.23412 69.7652 7.31935C69.6874 6.9275 69.5602 6.60882 69.4823 6.61088C69.4045 6.61293 68.3734 7.06541 67.1909 7.61615ZM60.4318 10.9413C58.2698 11.9885 58.0997 12.118 58.2626 12.5907C58.4941 13.2616 58.493 8.50584 58.2741 64.3202L58.0811 113.485L58.8453 113.628C59.2656 113.706 60.3734 113.739 61.3069 113.7L63.0042 113.631L63.0558 61.7144C63.0843 33.1607 63.0334 9.7997 62.9427 9.80152C62.8521 9.80335 61.7222 10.3162 60.4318 10.9413ZM54.2913 13.8262C53.6068 14.1465 53.1741 14.4568 53.3295 14.516C53.8211 14.7025 53.6355 15.0768 53.0871 15.0045C52.7984 14.9665 52.2892 15.1153 51.9556 15.3355L51.3493 15.7356V64.6217V113.508L51.8585 113.636C52.1387 113.707 53.2333 113.735 54.2913 113.698L56.215 113.631L56.2648 63.4241C56.3116 16.0704 56.2924 13.2183 55.9253 13.2308C55.7112 13.2379 54.9759 13.506 54.2913 13.8262ZM46.43 17.6251L44.5657 18.5795L44.5254 66.105L44.4849 113.631L46.7584 113.695C48.6952 113.75 49.053 113.704 49.1745 113.386C49.3569 112.907 49.3571 17.4751 49.1745 16.9959C48.9708 16.4614 48.4856 16.5726 46.43 17.6251ZM39.8642 20.8659L37.7708 21.8889V67.7964V113.704L40.2036 113.667L42.6364 113.631L42.6638 67.4702C42.6788 42.0821 42.7163 21.2073 42.7471 21.082C42.9085 20.4259 42.7199 19.8287 42.3535 19.8355C42.1356 19.8394 41.0156 20.3033 39.8642 20.8659ZM118.563 75.994C118.563 109.955 118.597 113.481 118.921 113.606C119.118 113.682 123.344 113.745 128.313 113.745H137.347L137.345 87.359C137.344 62.6442 137.319 60.9367 136.949 60.3907C136.732 60.07 135.287 58.2749 133.737 56.4016C132.188 54.528 129.919 51.7643 128.696 50.2598C127.472 48.7554 126.092 47.0678 125.629 46.5096C125.166 45.9515 124.49 45.0796 124.127 44.572C122.877 42.8215 119.058 38.5422 118.733 38.5278C118.639 38.5237 118.563 55.3835 118.563 75.994ZM33.3784 44.4812C32.8918 44.7395 29.1747 46.4774 25.1181 48.343C21.0615 50.2085 17.2842 51.9786 16.7241 52.2763L15.7057 52.8175V54.7051C15.7057 56.1369 15.7876 56.6439 16.0452 56.8046C16.2918 56.9584 18.7636 55.8987 25.0975 52.923C29.8896 50.6717 34.0394 48.7599 34.3196 48.6747C34.7946 48.5299 34.8288 48.392 34.8288 46.6158C34.8288 44.7594 34.7036 43.9809 34.4085 44.0012C34.3284 44.0069 33.8649 44.2228 33.3784 44.4812ZM32.2262 51.9731C31.2305 52.4603 28.4299 53.7737 26.0027 54.8923C23.5756 56.0106 20.6732 57.3585 19.5529 57.8873C18.4327 58.4162 17.1443 59.0007 16.6899 59.1862C15.7301 59.5778 15.6 59.9204 15.5957 62.0634C15.5934 63.1893 15.6797 63.6431 15.9132 63.7334C16.2803 63.8752 17.1418 63.4991 26.8906 58.9409C30.8018 57.1123 34.1917 55.4428 34.4237 55.2315C34.781 54.9057 34.8358 54.5649 34.7806 53.0117C34.7301 51.5863 34.6398 51.1669 34.3762 51.1322C34.1895 51.1076 33.222 51.4862 32.2262 51.9731ZM33.3578 58.3603C31.7143 59.1513 28.4328 60.6747 24.6449 62.4049C22.5911 63.3431 19.7396 64.6463 18.3082 65.3013L15.7057 66.4919L15.6405 68.4447C15.5418 71.4065 14.769 71.5617 25.5501 66.4526C28.1018 65.2434 31.106 63.8301 32.2262 63.3119C33.3465 62.7938 34.3904 62.2738 34.5459 62.1567C34.841 61.9344 34.9526 58.9423 34.6914 58.2569C34.5233 57.8153 34.4837 57.8183 33.3578 58.3603ZM32.2262 65.7423C30.5604 66.5306 15.5805 73.4531 6.54019 77.612C3.61515 78.9576 1.10855 80.1507 0.97005 80.2631C0.651408 80.5216 0.35879 83.6498 0.593472 84.2876C0.766598 84.7583 0.796698 84.7535 2.57978 83.9648C4.20559 83.2456 8.99541 81.027 14.8828 78.266C16.0481 77.7194 17.0448 77.2722 17.0973 77.2722C17.1498 77.2722 18.131 76.8201 19.278 76.2678C20.4249 75.7155 23.7566 74.1419 26.6817 72.7708C29.6067 71.3999 32.6354 69.9797 33.4121 69.615L34.824 68.9519L34.8265 66.9573C34.8288 65.0357 34.8102 64.9632 34.3196 64.9776C34.0394 64.9858 33.0975 65.3298 32.2262 65.7423ZM32.334 72.5871C27.7498 74.7264 18.7704 78.8678 16.7241 79.7865C15.5416 80.3174 14.4723 80.8266 14.3478 80.918C14.0401 81.1444 5.00808 85.2505 4.8182 85.2505C4.73492 85.2505 3.70974 85.729 2.54018 86.3137L0.41333 87.3771L0.478055 89.3315C0.533501 90.9965 0.602977 91.2976 0.947193 91.3639C1.16943 91.4068 3.66448 90.366 6.49176 89.0511C9.31903 87.7363 12.6505 86.2031 13.8952 85.6439C15.1399 85.085 16.8203 84.3086 17.6293 83.9188C18.4384 83.5288 22.6138 81.5743 26.908 79.5752L34.7156 75.9405L34.7815 74.0952C34.8774 71.4047 34.8734 71.4022 32.334 72.5871ZM33.3578 78.9155C32.8599 79.1815 31.1796 79.9832 29.6237 80.6974C28.0678 81.4113 26.031 82.3557 25.0975 82.7959C24.164 83.2361 20.1413 85.1051 16.1583 86.9492C12.1753 88.7931 7.84712 90.7975 6.54019 91.4031C5.23325 92.0086 3.47008 92.7834 2.6221 93.1244C0.639413 93.922 0.39251 94.3073 0.450445 96.5131C0.489596 98.0001 0.552284 98.2438 0.896726 98.2438C1.37695 98.2438 2.20411 97.8918 6.65334 95.7946C8.52039 94.9145 14.5289 92.1198 20.0056 89.5843C25.4822 87.0488 30.7828 84.591 31.7849 84.1228C32.7868 83.6544 33.8817 83.2017 34.2178 83.1169L34.8288 82.9623V80.6871C34.8288 78.1507 34.8168 78.1363 33.3578 78.9155ZM33.0867 85.8584C32.0284 86.4276 29.1575 87.7748 17.5162 93.1657C11.4556 95.972 1.77639 100.404 0.939046 100.756C0.472397 100.952 0.430077 101.118 0.433019 102.741C0.436867 104.958 0.579441 105.546 1.0746 105.385C1.50142 105.247 13.7078 99.5488 22.6081 95.333C25.9066 93.7709 29.8783 91.9309 31.4342 91.2443C32.99 90.5579 34.3904 89.8902 34.5459 89.761C34.7331 89.6055 34.8288 88.8485 34.8288 87.5266C34.8288 85.1527 34.6742 85.0048 33.0867 85.8584ZM33.8047 92.4567C33.4345 92.6523 32.0622 93.3061 30.7552 93.9099C22.638 97.6591 0.948324 107.901 0.712737 108.096C0.39251 108.361 0.311039 112.747 0.617235 113.233C0.758904 113.458 4.44072 113.531 17.7567 113.575L34.7156 113.631L34.7745 103.186C34.8068 97.4409 34.7534 92.5969 34.6557 92.421C34.5049 92.1495 34.3768 92.1547 33.8047 92.4567Z" fill="white"/>
</svg>
