<?xml version="1.0" encoding="UTF-8"?>
<svg xmlns="http://www.w3.org/2000/svg" width="165" height="99" viewBox="0 0 165 99" fill="none">
  <path fill-rule="evenodd" clip-rule="evenodd" d="M16.9795 98.6444H146.32L81.9927 34.3184L16.9795 98.6444Z" fill="#9E9E9E"></path>
  <path fill-rule="evenodd" clip-rule="evenodd" d="M14.5071 95.4149L24.5841 85.5844L21.2276 82.143L14.8983 88.3182L3.74863 76.8874L0 80.5455L14.5071 95.4149ZM26.7959 83.3446L37.1212 73.2714L34.2857 70.3649L27.7305 76.7604L24.5813 73.5347L29.835 68.408L26.8678 65.367L21.6141 70.4928L18.9168 67.7264L25.2573 61.5409L22.4236 58.6345L12.131 68.6769L26.7959 83.3446ZM39.3013 71.2257L43.1722 67.4491L35.2558 59.3347L48.0543 62.7099L51.8954 58.9622C51.8954 58.9622 42.6242 55.7999 42.1835 55.8764C42.0406 55.8998 44.175 50.2203 39.3797 47.7032C39.3797 47.7032 35.8216 45.778 32.2606 49.0113L24.6709 56.4908L39.3013 71.2257ZM60.682 50.5462C65.8134 45.5409 63.9862 39.0585 60.5915 35.5797C56.4274 31.311 49.2046 31.8217 45.7249 35.2156C42.2451 38.6094 40.4693 45.3803 45.3841 50.4164C50.7806 55.9483 57.2023 53.941 60.682 50.5462Z" fill="#9E9E9E"></path>
  <path fill-rule="evenodd" clip-rule="evenodd" d="M57.531 47.6235C59.8343 45.3762 59.7111 43.1578 55.9839 39.3382C52.7171 35.9892 49.9712 37.1693 48.6193 38.4886C46.653 40.4063 46.4905 43.1914 49.1944 45.9625C52.4118 49.2602 55.2277 49.8708 57.531 47.6235Z" fill="#F8F8F8"></path>
  <path fill-rule="evenodd" clip-rule="evenodd" d="M72.2053 39.1236L76.0146 35.4067L70.2838 29.5321L66.8535 15.2603L62.4868 19.5215L64.7584 27.6181L57.0838 24.7919L52.9673 28.8085L66.0506 33.01L72.2053 39.1236Z" fill="#9E9E9E"></path>
  <path fill-rule="evenodd" clip-rule="evenodd" d="M35.0931 59.1995C35.0931 59.1995 31.7208 55.744 31.6013 55.6198C31.4818 55.4975 34.0129 53.3277 34.4116 52.9384C34.5806 52.7731 36.1566 51.7461 37.46 53.0822C37.46 53.0822 39.6849 54.8393 37.5337 56.9382C35.3835 59.037 35.0931 59.1995 35.0931 59.1995Z" fill="#F8F8F8"></path>
  <path fill-rule="evenodd" clip-rule="evenodd" d="M71.0229 18.0728L67.6375 14.6603L82.4182 0L87.2545 4.87649L81.9299 15.3558L92.7855 10.4532L97.4407 15.1467L82.659 29.806L79.0925 26.2105L86.895 18.4724L76.2215 23.3152L74.0153 21.0903L78.9758 10.4271L71.0229 18.0728ZM96.6844 43.9462L86.4375 33.6153L101.219 18.956L111.495 29.3177L108.508 32.2793L102.071 25.7885L99.6637 28.1759L104.741 33.296L101.633 36.379L96.5855 31.2896L93.3541 34.4939L99.7309 40.924L96.6844 43.9462ZM100.008 47.299L103.818 51.1391L111.894 43.1293L108.985 56.3499L112.884 60.2815C112.884 60.2815 115.959 50.8254 116.052 50.4305C116.052 50.4305 119.383 52.2651 123.038 49.1243C123.038 49.1243 126.543 45.709 123.796 41.7223L114.819 32.6705L100.008 47.299ZM130.476 48.4558L134.286 52.2959L123.1 63.3887L129.359 69.6974L125.762 73.2649L115.696 63.1151L130.476 48.4558ZM128.421 75.9454L143.203 61.2861L146.919 65.0347L132.139 79.694L128.421 75.9454ZM138.879 86.4911L135.403 82.9861L150.183 68.3268L155.233 73.4161L150.92 88.6338L160.703 78.9322L164.088 82.3438L149.308 97.0031L144.895 92.5542L148.694 76.5756L138.879 86.4911Z" fill="#9E9E9E"></path>
  <path fill-rule="evenodd" clip-rule="evenodd" d="M112.168 42.8565L115.704 39.3506C115.704 39.3506 118.122 41.7884 118.423 42.0937C118.725 42.398 120.633 43.8331 118.317 46.0085C118.317 46.0085 116.43 47.2745 114.767 45.5995L112.168 42.8565Z" fill="#F8F8F8"></path>
</svg>
