<svg width="150" height="86" viewBox="0 0 150 86" fill="none" xmlns="http://www.w3.org/2000/svg">
<path fill-rule="evenodd" clip-rule="evenodd" d="M81.0515 0.0891784C80.9954 0.139169 80.5799 0.340539 80.1283 0.536498C79.3521 0.873449 79.3038 0.914675 79.2442 1.28971C79.2096 1.50786 79.18 13.4564 79.1786 27.842L79.1762 53.9974L81.1907 53.968L83.2054 53.9385L83.2265 43.6069C83.2411 36.4871 83.2828 33.2634 83.3608 33.2372C83.423 33.2163 83.4739 33.1303 83.4739 33.046C83.4739 32.9484 83.589 32.8926 83.7904 32.8926C84.1207 32.8926 84.4361 32.7232 87.0434 31.1451C87.9136 30.6184 88.6508 30.1875 88.6817 30.1875C88.7125 30.1875 88.7377 35.5448 88.7377 42.0926V53.9976L90.6445 53.9681L92.5513 53.9385L92.605 37.6617L92.6588 21.3847L94.566 20.2407C95.615 19.6113 96.8587 18.8774 97.3297 18.6096L98.1861 18.1226L98.1887 14.8706L98.1911 11.6187L97.842 11.2875C97.5661 11.0258 95.5733 9.64618 93.7135 8.42941C93.5844 8.34501 92.6269 7.69167 91.5854 6.97752C90.544 6.26336 89.5022 5.55732 89.2705 5.40854C88.7473 5.07278 85.6848 3.01018 85.2464 2.69844C83.2884 1.30605 81.342 0.00391274 81.2126 1.73509e-05C81.1801 -0.000956495 81.1076 0.0391876 81.0515 0.0891784ZM77.9415 1.69765C77.5952 1.78021 76.1225 2.5067 76.0363 2.63763C75.9929 2.70352 75.9567 14.2871 75.9558 28.3788L75.9542 54L77.109 53.9693L78.2638 53.9385V27.78C78.2638 13.3928 78.2396 1.62699 78.2101 1.63391C78.1805 1.64084 78.0597 1.66951 77.9415 1.69765ZM73.6982 3.61526L72.6777 4.09071L72.6506 28.9749L72.6236 53.8591L72.8655 53.9244C72.9986 53.9603 73.5006 53.9904 73.9811 53.9911C74.797 53.9925 74.8592 53.9765 74.9197 53.7492C75.0058 53.4251 75.0065 3.9086 74.9202 3.47438C74.8832 3.28837 74.8229 3.1371 74.7859 3.13807C74.749 3.13905 74.2595 3.35384 73.6982 3.61526ZM70.4898 5.19365C69.4635 5.69074 69.3828 5.7522 69.4601 5.97662C69.57 6.29507 69.5695 4.03758 69.4656 30.5317L69.3739 53.8695L69.7367 53.9371C69.9362 53.9744 70.4621 53.9899 70.9052 53.9717L71.7109 53.9385L71.7354 29.2948C71.7489 15.7408 71.7247 4.65176 71.6817 4.65262C71.6387 4.65349 71.1023 4.89695 70.4898 5.19365ZM67.575 6.56309C67.25 6.71512 67.0446 6.86239 67.1184 6.89052C67.3518 6.97903 67.2637 7.1567 67.0034 7.1224C66.8663 7.10433 66.6246 7.17499 66.4663 7.27952L66.1785 7.46942V30.6749V53.8803L66.4202 53.9414C66.5532 53.9749 67.0728 53.988 67.575 53.9705L68.4881 53.9385L68.5118 30.1064C68.534 7.62837 68.5249 6.27451 68.3506 6.28046C68.249 6.28381 67.9 6.41106 67.575 6.56309ZM63.8434 8.36633L62.9584 8.81938L62.9393 31.379L62.9201 53.9385L63.9993 53.9693C64.9186 53.9953 65.0884 53.9736 65.1461 53.8223C65.2327 53.595 65.2328 8.29513 65.1461 8.06768C65.0494 7.81394 64.8191 7.86675 63.8434 8.36633ZM60.7267 9.90468L59.733 10.3903V32.1818V53.9734L60.8878 53.956L62.0426 53.9385L62.0556 32.027C62.0627 19.9757 62.0805 10.0668 62.0951 10.0073C62.1717 9.69585 62.0823 9.41235 61.9083 9.41559C61.8049 9.41743 61.2732 9.63763 60.7267 9.90468ZM98.0837 36.0731C98.0837 52.1937 98.0996 53.8675 98.2537 53.927C98.3471 53.9631 100.353 53.9926 102.712 53.9926H107L106.999 41.4679C106.999 29.7362 106.987 28.9256 106.811 28.6665C106.708 28.5142 106.022 27.6621 105.287 26.7729C104.551 25.8835 103.474 24.5717 102.893 23.8575C102.313 23.1434 101.658 22.3423 101.438 22.0773C101.218 21.8124 100.897 21.3986 100.725 21.1576C100.131 20.3267 98.3184 18.2953 98.1643 18.2885C98.1199 18.2866 98.0837 26.2896 98.0837 36.0731ZM57.648 21.1145C57.417 21.2371 55.6525 22.0621 53.7269 22.9476C51.8014 23.8332 50.0083 24.6734 49.7424 24.8147L49.259 25.0716V25.9676C49.259 26.6473 49.2979 26.8879 49.4202 26.9642C49.5373 27.0372 50.7106 26.5342 53.7172 25.1217C55.9919 24.053 57.9618 23.1455 58.0947 23.1051C58.3202 23.0363 58.3365 22.9709 58.3365 22.1278C58.3365 21.2465 58.277 20.877 58.137 20.8866C58.0989 20.8893 57.8789 20.9918 57.648 21.1145ZM57.1011 24.6708C56.6284 24.902 55.299 25.5255 54.1469 26.0565C52.9947 26.5873 51.617 27.2271 51.0853 27.4782C50.5535 27.7292 49.9419 28.0066 49.7262 28.0947C49.2706 28.2806 49.2089 28.4432 49.2068 29.4605C49.2058 29.9949 49.2467 30.2103 49.3575 30.2532C49.5318 30.3205 49.9408 30.142 54.5683 27.9783C56.4249 27.1103 58.034 26.3178 58.1442 26.2175C58.3138 26.0628 58.3398 25.9011 58.3136 25.1638C58.2896 24.4872 58.2468 24.2881 58.1216 24.2716C58.033 24.2599 57.5737 24.4397 57.1011 24.6708ZM57.6382 27.7027C56.8581 28.0782 55.3004 28.8013 53.5023 29.6226C52.5274 30.0679 51.1739 30.6866 50.4944 30.9974L49.259 31.5626L49.2281 32.4896C49.1813 33.8955 48.8144 33.9692 53.932 31.544C55.1432 30.9699 56.5693 30.2991 57.1011 30.0531C57.6328 29.8072 58.1284 29.5604 58.2022 29.5047C58.3423 29.3992 58.3952 27.9789 58.2712 27.6536C58.1914 27.444 58.1726 27.4454 57.6382 27.7027ZM57.1011 31.2068C56.3103 31.581 49.1996 34.867 44.9083 36.8412C43.5198 37.4799 42.33 38.0462 42.2643 38.0996C42.113 38.2223 41.9741 39.7072 42.0855 40.0099C42.1677 40.2334 42.182 40.2311 43.0284 39.8567C43.8001 39.5153 46.0738 38.4622 48.8684 37.1516C49.4216 36.8921 49.8947 36.6798 49.9196 36.6798C49.9445 36.6798 50.4103 36.4653 50.9547 36.2031C51.4992 35.9409 53.0807 35.1939 54.4691 34.5431C55.8576 33.8923 57.2953 33.2182 57.664 33.0451L58.3342 32.7303L58.3354 31.7835C58.3365 30.8714 58.3276 30.837 58.0947 30.8438C57.9618 30.8477 57.5146 31.011 57.1011 31.2068ZM57.1522 34.4559C54.9762 35.4714 50.7138 37.4373 49.7424 37.8733C49.1811 38.1253 48.6736 38.3671 48.6145 38.4105C48.4684 38.5179 44.1811 40.467 44.0909 40.467C44.0514 40.467 43.5648 40.6941 43.0096 40.9717L42 41.4764L42.0307 42.4042C42.057 43.1945 42.09 43.3375 42.2534 43.369C42.3589 43.3893 43.5433 42.8952 44.8853 42.2711C46.2274 41.647 47.8088 40.9192 48.3996 40.6538C48.9905 40.3884 49.7881 40.0199 50.1721 39.8349C50.5562 39.6497 52.5382 38.722 54.5766 37.773L58.2827 36.0477L58.314 35.1718C58.3595 33.8946 58.3576 33.8934 57.1522 34.4559ZM57.6382 37.4599C57.4019 37.5862 56.6042 37.9667 55.8657 38.3057C55.1271 38.6446 54.1603 39.0929 53.7172 39.3018C53.274 39.5108 51.3646 40.398 49.4739 41.2733C47.5832 42.1486 45.5287 43.1001 44.9083 43.3876C44.2879 43.675 43.451 44.0427 43.0485 44.2046C42.1073 44.5832 41.9901 44.7661 42.0176 45.8132C42.0362 46.519 42.066 46.6347 42.2295 46.6347C42.4574 46.6347 42.8501 46.4676 44.962 45.4721C45.8483 45.0544 48.7004 43.7278 51.3001 42.5242C53.8998 41.3206 56.4159 40.154 56.8916 39.9317C57.3672 39.7094 57.8869 39.4945 58.0464 39.4542L58.3365 39.3808V38.3008C58.3365 37.0968 58.3308 37.09 57.6382 37.4599ZM57.5095 40.7556C57.0072 41.0258 55.6444 41.6653 50.1184 44.2242C47.2416 45.5563 42.647 47.66 42.2495 47.827C42.028 47.9201 42.0079 47.9989 42.0093 48.7695C42.0112 49.8219 42.0789 50.1009 42.3139 50.0248C42.5165 49.959 48.3107 47.2542 52.5355 45.253C54.1012 44.5115 55.9865 43.6381 56.7251 43.3121C57.4636 42.9863 58.1284 42.6694 58.2022 42.6081C58.291 42.5343 58.3365 42.1749 58.3365 41.5474C58.3365 40.4206 58.2631 40.3504 57.5095 40.7556ZM57.8504 43.8877C57.6746 43.9805 57.0232 44.2909 56.4028 44.5775C52.5497 46.3571 42.254 51.2187 42.1421 51.3112C41.9901 51.4369 41.9514 53.5191 42.0968 53.7498C42.164 53.8565 43.9117 53.8915 50.2326 53.9121L58.2827 53.9385L58.3107 48.9805C58.326 46.2536 58.3007 43.9542 58.2543 43.8707C58.1827 43.7418 58.1219 43.7443 57.8504 43.8877Z" fill="#4CAF50"/>
<path fill-rule="evenodd" clip-rule="evenodd" d="M143.993 67.0255C143.979 67.0377 143.468 67.105 143.142 67.1376C143.003 67.1514 142.713 67.2152 142.498 67.2794C142.283 67.3435 141.889 67.4408 141.623 67.4957C141.357 67.5505 140.962 67.6839 140.746 67.7921C140.529 67.9003 140.289 68.0079 140.211 68.0311C140.046 68.0807 139.645 68.3116 138.931 68.7695C138.204 69.2355 137.025 70.4202 136.467 71.2437C136.23 71.5941 136.017 71.9416 135.994 72.0157C135.97 72.0898 135.931 72.1639 135.906 72.1803C135.839 72.2238 135.565 72.8914 135.514 73.1352C135.489 73.2501 135.446 73.3727 135.418 73.4076C135.39 73.4425 135.272 73.832 135.157 74.273C134.596 76.4136 134.908 78.9684 135.981 81.0283C136.316 81.6722 137.246 82.891 137.808 83.4218C139.167 84.7057 141.141 85.6414 143.074 85.9172C144.135 86.0686 146.058 85.9858 147.097 85.7441C147.247 85.7092 147.246 85.7086 147.066 85.6709C146.929 85.642 147.023 85.6154 147.46 85.5598C148.034 85.4867 148.609 85.3274 148.609 85.2413C148.609 85.1723 149.007 85.085 149.531 85.0391L150 84.9981L149.999 83.528C149.998 82.2488 149.96 81.8024 149.86 81.9103C149.845 81.9258 149.789 82.0901 149.735 82.2755C149.615 82.6901 149.008 83.4579 148.477 83.8683C148.035 84.2106 147.341 84.5734 147.03 84.6252C146.902 84.6465 146.736 84.7114 146.66 84.7694C146.478 84.9085 145.861 84.9824 144.889 84.9816C143.916 84.9808 143.437 84.9185 143.299 84.7753C143.241 84.7141 142.985 84.6219 142.711 84.5631C142.445 84.5059 142.16 84.4222 142.076 84.3771C141.993 84.3319 141.66 84.1542 141.336 83.9821C140.158 83.3567 139.059 82.3239 138.18 81.0169C137.883 80.5758 137.59 80.0789 137.529 79.9128C137.467 79.7467 137.379 79.5437 137.333 79.4616C137.287 79.3795 137.202 79.1512 137.145 78.9543C137.088 78.7573 137.002 78.5198 136.953 78.4265C136.835 78.1975 136.687 76.6225 136.729 76.0298C136.776 75.3418 136.863 74.5794 136.929 74.2692C137.014 73.8734 137.301 72.9356 137.359 72.8665C137.386 72.8336 137.468 72.659 137.54 72.4786C137.611 72.2981 137.759 72.0162 137.867 71.852C137.976 71.6879 138.08 71.512 138.098 71.4612C138.153 71.3107 138.752 70.5559 138.996 70.3301C139.205 70.1365 139.33 70.0315 139.899 69.5694C140.155 69.3611 141.06 68.8381 141.163 68.8381C141.204 68.8381 141.324 68.774 141.43 68.6958C141.666 68.5217 141.895 68.4449 141.895 68.5399C141.895 68.5796 141.935 68.5688 141.99 68.5137C142.157 68.3494 142.317 68.2933 142.526 68.326C142.687 68.3514 142.734 68.3358 142.757 68.2487C142.801 68.0839 143.149 68.0471 144.738 68.0393C146.216 68.032 146.452 68.0568 146.622 68.2375C146.678 68.297 146.848 68.3639 146.999 68.3862C147.319 68.4336 147.636 68.5772 147.682 68.6954C147.7 68.741 147.74 68.7784 147.772 68.7784C147.925 68.7784 148.393 69.2564 148.562 69.5841C148.663 69.781 148.81 70.0181 148.889 70.1109C148.968 70.2037 149.032 70.3253 149.032 70.3811C149.032 70.5245 149.203 70.7479 149.313 70.7479C149.385 70.7479 149.396 70.706 149.363 70.5539C149.34 70.4473 149.295 70.3289 149.265 70.291C149.175 70.1808 149.227 68.1231 149.32 68.1224C149.444 68.1215 149.405 68.0041 149.259 67.9419C149.184 67.91 148.963 67.844 148.768 67.7954C148.573 67.7467 148.382 67.6832 148.345 67.6542C148.278 67.6027 147.733 67.475 147.006 67.3405C146.806 67.3036 146.615 67.251 146.581 67.2237C146.42 67.0961 145.409 66.9831 144.597 67.0021C144.271 67.0097 143.999 67.0203 143.993 67.0255ZM103.97 67.7922C103.97 68.081 103.948 68.2347 103.91 68.2114C103.877 68.1911 103.847 68.0217 103.844 67.8348L103.839 67.4952L103.673 67.9727C103.581 68.2353 103.295 69.0141 103.036 69.7035C102.778 70.3928 102.502 71.1512 102.423 71.3888C102.344 71.6264 102.252 71.8681 102.22 71.9259C102.169 72.0183 101.649 73.3779 101.199 74.5974C101.115 74.8272 101.023 75.0408 100.996 75.0719C100.968 75.1031 100.946 75.1732 100.946 75.2276C100.946 75.2821 100.867 75.4732 100.77 75.6523C100.673 75.8314 100.52 76.2179 100.429 76.5112C100.339 76.8045 100.117 77.407 99.9366 77.8502C99.7563 78.2933 99.5445 78.8439 99.466 79.0737C99.2156 79.8058 98.8439 80.7893 98.6313 81.2819C98.518 81.5445 98.278 82.1751 98.098 82.6832C97.9179 83.1913 97.6209 83.903 97.4379 84.2648L97.1053 84.9226L96.7424 85.0492C96.3346 85.1914 96.2399 85.3396 96.5115 85.4102C96.6052 85.4345 97.2052 85.4553 97.8448 85.4564C98.8511 85.458 99.0213 85.4449 99.1085 85.3588C99.2025 85.266 99.1955 85.2512 99.004 85.136C98.8912 85.0681 98.7688 85.0124 98.7321 85.0123C98.6954 85.0122 98.5954 84.9482 98.5099 84.87L98.3545 84.7279L98.5074 84.2582C98.6737 83.7471 99.3048 81.976 99.5253 81.4013C99.683 80.9903 99.979 80.1655 100.339 79.1333C100.476 78.7394 100.64 78.2963 100.703 78.1486C100.766 78.0009 100.832 77.8091 100.851 77.7224C100.869 77.6358 100.928 77.5486 100.98 77.5288C101.032 77.5089 101.979 77.4762 103.082 77.4561C105.379 77.4142 106.328 77.4843 106.025 77.6734C105.945 77.7235 105.984 77.7563 106.103 77.7378C106.127 77.734 106.148 77.7886 106.148 77.8593C106.148 77.93 106.267 78.2858 106.413 78.6501C106.558 79.0143 106.692 79.3661 106.71 79.4317C106.728 79.4974 107.033 80.33 107.389 81.2819C108.297 83.7101 108.638 84.7066 108.601 84.8226C108.583 84.8776 108.48 84.9582 108.371 85.0016C108.263 85.0451 108.113 85.105 108.038 85.1346C107.82 85.2212 107.878 85.348 108.173 85.4296C108.484 85.5156 111.128 85.4807 111.44 85.3864C111.731 85.2989 111.664 85.1744 111.286 85.0997C111.101 85.0632 110.919 85.015 110.883 84.9926C110.846 84.9702 110.694 84.7293 110.545 84.4571C110.285 83.9826 110.197 83.7707 109.74 82.5054C109.627 82.1936 109.497 81.8579 109.451 81.7594C109.406 81.6609 109.307 81.3923 109.232 81.1626C109.157 80.9328 109.076 80.7179 109.052 80.6851C109.028 80.6523 108.933 80.4105 108.841 80.1479C108.749 79.8853 108.585 79.4422 108.476 79.1632C108.282 78.6615 107.477 76.5154 107.245 75.8806C107.101 75.4849 106.732 74.4785 106.403 73.5828C106.057 72.6418 106.045 72.6069 105.93 72.1952C105.873 71.9901 105.794 71.8222 105.754 71.8222C105.686 71.8222 105.518 71.4198 105.331 70.8076C105.217 70.434 104.901 69.6047 104.683 69.1066C104.51 68.7122 104.355 68.2488 104.193 67.649C104.073 67.2042 103.97 67.2701 103.97 67.7922ZM0.222302 67.5065C0.0688498 67.546 0.0924996 67.6852 0.259743 67.7266C0.454446 67.7749 0.826977 68.3237 0.935973 68.723C1.01152 68.9998 1.02331 70.1289 1.01678 76.4775C1.01206 81.0588 0.986115 84.0523 0.949158 84.2844C0.874882 84.7501 0.699232 84.9725 0.293252 85.1148C-0.0142576 85.2225 -0.0828484 85.3249 0.101331 85.4013C0.47235 85.5551 3.56831 85.511 3.73192 85.3496C3.8091 85.2734 3.80233 85.2516 3.677 85.1739C3.59825 85.1251 3.43458 85.068 3.31318 85.0471C3.13596 85.0164 3.07051 84.9652 2.98051 84.7867C2.87345 84.5742 2.86789 84.2129 2.85373 76.5073L2.83891 68.4501L6.20658 68.462C9.38056 68.4732 9.57763 68.4801 9.63345 68.5814C9.66605 68.6405 9.83802 68.8345 10.0156 69.0126C10.3294 69.3272 10.3385 69.346 10.3385 69.6752C10.3385 70.0442 10.4389 70.4094 10.5259 70.3564C10.5559 70.3381 10.5805 69.6978 10.5805 68.9335V67.5439L9.44637 67.5048C8.19426 67.4616 0.390755 67.463 0.222302 67.5065ZM17.4202 67.5215C17.096 67.5405 16.8411 67.5826 16.8289 67.6192C16.8045 67.6921 17.0621 67.8234 17.2294 67.8234C17.3809 67.8234 17.4467 67.9152 17.6392 68.3951L17.8049 68.8082L17.8264 76.1756C17.8489 83.8557 17.8366 84.3103 17.5964 84.7C17.5354 84.799 17.3404 84.9568 17.1631 85.0505C16.6745 85.3089 16.7275 85.3872 17.4456 85.4684C18.0397 85.5356 20.1626 85.4837 20.485 85.3941C20.7672 85.3156 20.6164 85.1298 20.1986 85.0412C19.9359 84.9854 19.8506 84.8764 19.8029 84.5346C19.7822 84.3869 19.7548 84.2332 19.7421 84.1931C19.6845 84.0122 19.6565 76.602 19.7132 76.5673C19.7464 76.5471 20.2568 76.5057 20.8476 76.4754C21.93 76.4198 22.2997 76.3698 22.7986 76.2117C22.9483 76.1642 23.2687 76.0668 23.5107 75.9951C23.7526 75.9234 23.9633 75.8445 23.9789 75.8196C23.9945 75.7948 24.245 75.6574 24.5358 75.5142C24.9639 75.3035 25.1753 75.146 25.6469 74.687C26.287 74.0638 26.5909 73.6081 26.8249 72.92C27.1851 71.8615 27.0384 70.8146 26.3742 69.7035C26.2958 69.5722 26.0041 69.2499 25.726 68.9873C25.0522 68.3507 24.4942 68.0556 23.6454 67.8866C23.2961 67.8171 22.9379 67.7206 22.8494 67.6723C22.7575 67.622 22.3816 67.5592 21.9724 67.5258C21.233 67.4654 18.4254 67.4627 17.4202 67.5215ZM34.4572 67.5097C33.9104 67.5334 33.8259 67.6436 34.2578 67.7694C34.4565 67.8273 34.5112 67.8667 34.4665 67.9198C34.4253 67.9688 34.4293 68.0061 34.4787 68.0362C34.5249 68.0644 34.5357 68.0554 34.5083 68.0117C34.4846 67.9738 34.4824 67.9428 34.5033 67.9428C34.5871 67.9428 34.707 68.1146 34.7777 68.3359C34.884 68.6689 34.9336 72.1605 34.9234 78.5962C34.9166 82.8988 34.8982 84.0556 34.8309 84.4094L34.747 84.8512L34.3991 85.0062C34.0405 85.166 33.9359 85.2826 34.0501 85.3951C34.145 85.4886 37.2891 85.4786 37.5117 85.3841C37.7436 85.2856 37.7194 85.2067 37.4338 85.1308C37.2994 85.0951 37.1021 84.9889 36.9954 84.8949C36.8184 84.7388 36.7959 84.6779 36.738 84.1986C36.6619 83.5684 36.6805 83.4063 36.852 83.2062C37.2916 82.6932 38.2751 81.4243 39.0837 80.327C39.3256 79.9987 39.8364 79.3195 40.2188 78.8177C41.0577 77.7167 41.5886 77.0068 42.033 76.392C42.216 76.1388 42.4676 75.8061 42.5921 75.6525C42.7166 75.499 42.9546 75.1853 43.1209 74.9555C43.2872 74.7258 43.6134 74.296 43.8459 74.0006C44.0784 73.7052 44.5073 73.144 44.7991 72.7535C45.3005 72.0824 45.9395 71.3447 46.0195 71.3447C46.0396 71.3447 46.0378 71.5798 46.0156 71.867C45.9933 72.1542 45.9728 75.04 45.9699 78.2799C45.9663 82.2491 45.9433 84.2738 45.8992 84.4869C45.8237 84.8519 45.7138 84.9663 45.3319 85.0775C45.01 85.1713 44.9557 85.3399 45.2237 85.4138C45.4389 85.4732 48.3631 85.4736 48.5785 85.4142C48.8067 85.3513 48.744 85.2514 48.3478 85.0468C47.7523 84.7393 47.8094 85.6365 47.8094 76.5895V68.6094L47.9455 68.4277C48.0203 68.3278 48.0816 68.1644 48.0816 68.0646C48.0816 67.924 48.1083 67.8831 48.2005 67.8831C48.3716 67.8831 48.747 67.695 48.747 67.6092C48.747 67.5006 47.6466 67.4433 46.3293 67.4834C45.7129 67.5022 45.1476 67.5357 45.0731 67.5579C44.9018 67.609 44.9554 67.7041 45.1556 67.7041C45.239 67.7041 45.3599 67.7319 45.4242 67.7659C45.5067 67.8094 45.5412 67.8084 45.5412 67.7623C45.5412 67.7264 45.571 67.7152 45.6074 67.7374C45.6438 67.7596 45.661 67.8424 45.6457 67.9214C45.6303 68.0011 45.6518 68.0844 45.694 68.1084C45.9188 68.2362 46.0997 69.1803 45.9724 69.5609C45.9347 69.6735 45.8019 69.8908 45.6772 70.0439C45.4077 70.3747 44.9812 70.937 44.4827 71.6187C44.2831 71.8916 43.9177 72.3781 43.6706 72.6997C43.4235 73.0213 43.1218 73.4187 43.0003 73.5828C42.8788 73.747 42.1703 74.687 41.4259 75.6717C40.6815 76.6565 39.7039 77.9499 39.2534 78.5459C38.8028 79.142 38.2844 79.8368 38.1015 80.0899C37.9185 80.3429 37.6387 80.6997 37.4797 80.8825C37.3207 81.0654 37.1302 81.3221 37.0563 81.453C36.8708 81.7818 36.7869 81.7888 36.7416 81.4795C36.7209 81.338 36.7122 78.3619 36.7222 74.866L36.7405 68.5098L36.8703 68.2488C36.9709 68.0464 37.072 67.9515 37.3205 67.826C37.4969 67.737 37.6504 67.6369 37.6617 67.6035C37.7026 67.4823 36.1413 67.4366 34.4572 67.5097ZM56.9428 67.506C56.8097 67.5209 56.6773 67.5558 56.6485 67.5836C56.5881 67.6421 56.9128 67.8234 57.078 67.8234C57.2081 67.8234 57.3633 68.0664 57.4192 68.3574C57.5 68.7785 57.5852 69.0197 57.6412 68.9855C57.6729 68.9662 57.6988 68.9788 57.6988 69.0136C57.6988 69.0483 57.6785 69.0768 57.6535 69.0768C57.6285 69.0768 57.6081 72.4886 57.6081 76.6586C57.6081 82.2073 57.5898 84.252 57.5401 84.2831C57.5027 84.3066 57.4524 84.4197 57.4283 84.5346C57.3596 84.8623 57.2465 84.9879 56.9443 85.0714C56.7138 85.135 56.6677 85.1707 56.6826 85.274C56.7087 85.4539 56.8833 85.475 58.3642 85.4781C59.7319 85.4808 60.184 85.4451 60.2224 85.331C60.2351 85.2931 60.07 85.1462 59.8555 85.0047C59.5173 84.7817 59.4585 84.7153 59.414 84.5067C59.3598 84.2527 59.3399 76.1512 59.3933 76.0986C59.4351 76.0573 68.2647 76.0211 68.3063 76.062C68.3689 76.1237 68.3902 78.6784 68.3518 81.5505C68.3154 84.2791 68.3063 84.4588 68.1926 84.6838C68.0946 84.878 68.013 84.9448 67.7552 85.0419C67.581 85.1076 67.4381 85.1763 67.4377 85.1947C67.4373 85.213 67.4756 85.2801 67.5228 85.3439C67.6011 85.4496 67.7028 85.4615 68.6871 85.4802C70.1059 85.5073 71.002 85.4491 71.0495 85.3269C71.0872 85.2302 70.9752 85.1444 70.6787 85.0426C70.582 85.0094 70.4482 84.9095 70.3815 84.8206C70.2676 84.669 70.2572 84.5299 70.2153 82.5825C70.1907 81.4404 70.1775 77.9009 70.1859 74.7168C70.2043 67.8152 70.1843 68.047 70.7807 67.8169C71.1675 67.6677 71.1111 67.5635 70.6125 67.5062C70.0169 67.4378 67.6167 67.4822 67.4725 67.5643C67.3625 67.627 67.3639 67.6324 67.5019 67.6756C67.5817 67.7006 67.7523 67.8045 67.8809 67.9065C68.3334 68.2653 68.3106 68.0791 68.3443 71.6938C68.361 73.4777 68.3551 74.9683 68.3314 75.0062C68.2786 75.0904 62.0548 75.1345 60.4207 75.0621L59.3622 75.0152L59.381 71.7673C59.3987 68.7008 59.4061 68.5115 59.5129 68.3775C59.5751 68.2995 59.6427 68.163 59.6632 68.0743C59.6915 67.9515 59.7746 67.8806 60.011 67.7776C60.5567 67.5398 60.3621 67.4975 58.6793 67.4877C57.8573 67.4829 57.0758 67.4911 56.9428 67.506ZM77.8859 67.5066C77.6613 67.5197 77.4781 67.5494 77.4786 67.5725C77.4803 67.6524 77.5796 67.77 77.6344 67.7571C77.7334 67.7338 78.022 67.8351 78.022 67.8931C78.022 67.9243 77.9913 67.9311 77.9537 67.9082C77.9122 67.8829 77.8963 67.8991 77.9131 67.9494C77.9283 67.995 77.9931 68.0407 78.057 68.051C78.1237 68.0616 78.315 68.2768 78.5059 68.5559C78.8177 69.0119 79.2922 69.7794 79.2922 69.828C79.2922 69.8909 82.0581 74.9608 82.5674 75.8314C82.888 76.3796 82.8784 76.5296 82.4742 77.2769C82.2947 77.6086 81.9678 78.2239 81.7476 78.6441C81.5274 79.0644 81.31 79.4673 81.2645 79.5394C81.2189 79.6115 80.9642 80.0868 80.6985 80.5956C79.8139 82.2891 78.9968 83.8099 78.8483 84.0393C78.7676 84.164 78.5555 84.4228 78.3769 84.6145C78.0904 84.9221 78.0067 84.9747 77.6641 85.0624C77.242 85.1705 77.153 85.2626 77.3635 85.3738C77.5102 85.4512 79.9131 85.4928 79.9882 85.4192C80.0767 85.3326 79.9455 85.0046 79.8007 84.9503C79.6058 84.8772 79.6155 84.7561 79.8624 84.1786C80.2134 83.3574 82.6657 78.7998 83.1809 78.0113L83.485 77.5458L83.682 77.9096C83.7903 78.1097 83.9044 78.3058 83.9355 78.3453C83.9666 78.3848 84.2041 78.82 84.4633 79.3124C85.1238 80.5671 85.4447 81.1612 85.7043 81.6102C86.0486 82.2054 86.8031 83.6269 86.9873 84.0273C87.2559 84.6114 87.1963 84.922 86.7697 85.1613C86.6316 85.2388 86.6953 85.4078 86.8797 85.4535C87.2176 85.5372 88.2964 85.5565 89.2518 85.496C90.6566 85.407 90.746 85.3631 90.104 85.0777C89.8117 84.9478 89.6782 84.8435 89.5153 84.6177C89.3995 84.4571 89.2634 84.2781 89.2129 84.2198C89.0946 84.0831 88.4097 82.8786 87.8649 81.8489C87.6304 81.4058 87.3792 80.9492 87.3068 80.8343C87.2342 80.7194 87.0178 80.3165 86.8257 79.9391C86.6336 79.5616 86.4557 79.2258 86.4305 79.193C86.3627 79.105 85.6715 77.8512 85.3119 77.1638C85.1402 76.8355 84.8863 76.3629 84.7478 76.1136L84.496 75.6601L84.653 75.3377C84.7393 75.1603 84.9741 74.7198 85.1748 74.3587C85.3754 73.9976 85.614 73.5679 85.705 73.4038C85.796 73.2397 86.2579 72.3668 86.7314 71.4641C87.778 69.4691 87.9567 69.1461 88.2637 68.6946C88.6133 68.1802 88.8903 67.8986 89.1203 67.8237C89.365 67.7441 89.4931 67.6157 89.3905 67.5531C89.2917 67.4929 86.5952 67.5168 86.5326 67.5785C86.484 67.6265 86.9795 68.0025 87.0914 68.0025C87.1842 68.0025 87.2026 68.1515 87.1502 68.4784C87.0942 68.8285 86.6992 69.6487 85.5834 71.7327C85.2142 72.422 84.7743 73.2546 84.6059 73.5828C84.4374 73.9111 84.2412 74.2928 84.1699 74.4312C84.0987 74.5695 84.0241 74.6836 84.0042 74.6848C83.9843 74.686 83.9162 74.5731 83.853 74.4339C83.7897 74.2948 83.6494 74.0537 83.5414 73.8982C83.4333 73.7428 83.3448 73.605 83.3448 73.5921C83.3448 73.5389 81.3989 70.0337 81.1862 69.7038C80.8354 69.1594 80.6681 68.6843 80.7133 68.3606C80.7707 67.9496 80.7949 67.9015 80.9835 67.8244C81.1563 67.7538 81.2653 67.6019 81.194 67.5314C81.1522 67.4902 78.5061 67.4704 77.8859 67.5066ZM117.323 67.506C117.154 67.5502 117.199 67.6353 117.443 67.736C117.567 67.7872 117.729 67.8853 117.803 67.954C117.877 68.0226 117.998 68.1086 118.072 68.1451C118.146 68.1815 118.225 68.2801 118.248 68.3641C118.27 68.4481 118.332 68.6092 118.385 68.7222C118.438 68.8352 118.539 69.0753 118.61 69.2558C118.681 69.4364 118.87 69.8661 119.03 70.2108C119.295 70.7813 119.503 71.2385 120.09 72.5384C120.606 73.6816 120.88 74.2767 121.096 74.7236C121.224 74.9899 121.33 75.2237 121.33 75.2432C121.33 75.2838 121.82 76.3607 122.213 77.1828C122.359 77.4888 122.479 77.7503 122.479 77.7641C122.479 77.7912 123.224 79.4174 123.612 80.2375C124.107 81.2838 124.125 81.4019 123.874 81.9144C123.808 82.0493 123.71 82.3113 123.656 82.4966C123.601 82.682 123.497 82.9545 123.424 83.1022C123.351 83.25 123.224 83.5435 123.142 83.7546C122.988 84.1528 122.697 84.5011 122.439 84.5979C122.248 84.6697 121.71 84.6708 121.666 84.5995C121.647 84.5695 121.53 84.5276 121.405 84.5063C121.135 84.46 120.957 84.3266 120.822 84.0685C120.723 83.881 120.586 83.822 120.514 83.9365C120.494 83.9687 120.395 84.2671 120.294 84.5999L120.111 85.2047L120.277 85.3763C120.369 85.4706 120.5 85.5655 120.569 85.587C120.638 85.6085 120.781 85.6908 120.886 85.7699C121.169 85.9826 121.766 86.0607 122.26 85.9495C122.555 85.8833 122.733 85.7942 123.018 85.5717C123.358 85.307 123.423 85.2159 123.745 84.5645C124.149 83.7467 124.359 83.275 124.717 82.386C124.856 82.0414 125.038 81.6117 125.122 81.4311C125.321 81.0022 125.987 79.4205 125.987 79.3777C125.987 79.3595 126.215 78.8136 126.494 78.1647C127.17 76.5943 128.29 73.9388 128.528 73.3441C128.634 73.0815 128.769 72.7592 128.829 72.6279C128.889 72.4966 129.116 71.9595 129.333 71.4343C130.234 69.2564 130.413 68.8564 130.69 68.398C130.955 67.9591 131.004 67.9106 131.248 67.841C131.556 67.753 131.663 67.6708 131.579 67.588C131.49 67.5 129.023 67.4898 128.935 67.577C128.879 67.6323 128.891 67.6558 128.992 67.6817C129.063 67.7001 129.205 67.8185 129.308 67.9448C129.58 68.2782 129.571 68.6966 129.279 69.3454C129.161 69.608 129.028 69.9303 128.984 70.0616C128.941 70.1929 128.749 70.6494 128.559 71.0762C128.368 71.5029 128.108 72.1072 127.981 72.419C127.854 72.7309 127.651 73.2143 127.53 73.4933C127.289 74.0488 126.835 75.1252 126.623 75.6419C126.549 75.8224 126.403 76.1447 126.299 76.3581C126.195 76.5715 125.972 77.0817 125.803 77.4921C125.282 78.7604 125.177 78.9831 125.134 78.9139C125.111 78.8774 125.047 78.8645 124.991 78.8855C124.936 78.9064 124.908 78.9506 124.928 78.9837C124.949 79.0168 124.934 79.0438 124.895 79.0438C124.851 79.0438 124.835 78.9842 124.854 78.8858C124.877 78.7712 124.765 78.4793 124.448 77.8264C124.207 77.3307 123.967 76.8311 123.915 76.7162C123.863 76.6013 123.61 76.0507 123.354 75.4927C123.098 74.9347 122.784 74.2461 122.657 73.9625C122.531 73.6789 122.292 73.1686 122.127 72.8285C121.962 72.4884 121.732 71.9953 121.615 71.7327C121.497 71.4701 121.294 71.0269 121.162 70.7479C120.914 70.2227 120.502 69.322 120.343 68.9574C120.179 68.5836 120.182 67.9611 120.347 67.8996C120.405 67.8779 120.544 67.8074 120.655 67.7429C120.841 67.6356 120.848 67.6203 120.746 67.5605C120.635 67.4957 117.549 67.4466 117.323 67.506ZM118.068 68.3357C118.071 68.4052 118.086 68.4194 118.105 68.3718C118.122 68.3287 118.12 68.2772 118.1 68.2574C118.08 68.2376 118.066 68.2728 118.068 68.3357ZM21.4347 68.4813C22.1255 68.5305 22.301 68.562 22.4025 68.655C22.4706 68.7174 22.6964 68.8247 22.9041 68.8934C23.4047 69.0588 23.8433 69.3437 24.2551 69.771C24.7005 70.2331 24.8657 70.5065 25.0254 71.0463C25.1903 71.6033 25.2069 72.5302 25.0609 73.0199C24.8024 73.8869 23.9682 74.7043 22.8857 75.1512C22.555 75.2878 22.162 75.4266 22.0123 75.4596C21.6657 75.536 19.757 75.5412 19.6806 75.4659C19.6446 75.4306 19.6404 74.552 19.6694 73.1234C19.6949 71.8661 19.7085 70.307 19.6997 69.6586C19.6895 68.914 19.7058 68.4706 19.7441 68.4548C19.8543 68.4091 20.5794 68.4205 21.4347 68.4813ZM2.69816 68.909C2.67887 68.9565 2.66453 68.9424 2.66163 68.8728C2.65903 68.8099 2.6733 68.7747 2.69338 68.7945C2.71347 68.8144 2.71564 68.8659 2.69816 68.909ZM10.3385 68.9574C10.3385 69.0231 10.3113 69.0768 10.278 69.0768C10.2448 69.0768 10.2176 69.0656 10.2176 69.0518C10.2176 69.0381 10.2011 68.9844 10.1808 68.9325C10.1568 68.8705 10.1775 68.8381 10.2413 68.8381C10.2982 68.8381 10.3385 68.8876 10.3385 68.9574ZM34.9975 68.9686C34.9782 69.0162 34.9639 69.0021 34.961 68.9325C34.9584 68.8696 34.9727 68.8344 34.9927 68.8542C35.0128 68.874 35.015 68.9256 34.9975 68.9686ZM2.73923 69.226C2.75835 69.2752 2.74764 69.3155 2.71546 69.3155C2.68322 69.3155 2.65685 69.2752 2.65685 69.226C2.65685 69.1768 2.66756 69.1365 2.68062 69.1365C2.69369 69.1365 2.72006 69.1768 2.73923 69.226ZM35.0614 70.8523C35.0494 71.0411 35.0396 70.8867 35.0396 70.5092C35.0396 70.1317 35.0494 69.9773 35.0614 70.166C35.0734 70.3547 35.0734 70.6636 35.0614 70.8523ZM105.01 70.8802C104.966 70.923 104.938 70.9265 104.938 70.8892C104.938 70.8095 105.01 70.7389 105.05 70.7788C105.067 70.7957 105.049 70.8414 105.01 70.8802ZM103.724 71.1806C103.822 71.5722 104.095 72.3675 104.161 72.4538C104.188 72.4894 104.277 72.7459 104.359 73.0239C104.44 73.3019 104.635 73.8368 104.792 74.2126C104.948 74.5884 105.138 75.0839 105.214 75.3136C105.29 75.5434 105.4 75.8541 105.458 76.004C105.652 76.502 105.757 76.4775 103.438 76.4775C102.311 76.4775 101.374 76.4623 101.356 76.4438C101.337 76.4253 101.52 75.8411 101.763 75.1457C102.394 73.3349 102.53 72.9668 102.911 72.0326C103.098 71.5739 103.239 71.1521 103.224 71.0954C103.206 71.0251 103.248 70.974 103.357 70.9345C103.62 70.8394 103.642 70.8542 103.724 71.1806ZM103.366 71.0654C103.366 71.1125 103.404 71.1828 103.451 71.2215C103.522 71.2793 103.532 71.2697 103.505 71.1682C103.465 71.0189 103.366 70.9453 103.366 71.0654ZM35.0607 74.314C35.0477 74.4371 35.037 74.3363 35.037 74.0901C35.037 73.8439 35.0477 73.7433 35.0607 73.8663C35.0738 73.9895 35.0738 74.1909 35.0607 74.314ZM135.907 74.2692C135.907 74.302 135.88 74.3289 135.846 74.3289C135.813 74.3289 135.786 74.302 135.786 74.2692C135.786 74.2364 135.813 74.2095 135.846 74.2095C135.88 74.2095 135.907 74.2364 135.907 74.2692ZM136.814 74.2692C136.814 74.302 136.787 74.3289 136.754 74.3289C136.72 74.3289 136.693 74.302 136.693 74.2692C136.693 74.2364 136.72 74.2095 136.754 74.2095C136.787 74.2095 136.814 74.2364 136.814 74.2692ZM101.531 75.06C101.514 75.101 101.5 75.0674 101.5 74.9854C101.5 74.9033 101.514 74.8698 101.531 74.9108C101.547 74.9518 101.547 75.019 101.531 75.06ZM105.694 76.2387C105.715 76.2715 105.703 76.2984 105.668 76.2984C105.632 76.2984 105.604 76.2715 105.604 76.2387C105.604 76.2059 105.615 76.179 105.63 76.179C105.645 76.179 105.674 76.2059 105.694 76.2387ZM124.94 79.2341C124.92 79.2816 124.906 79.2675 124.903 79.198C124.901 79.1351 124.915 79.0999 124.935 79.1197C124.955 79.1395 124.957 79.191 124.94 79.2341ZM19.5743 80.6989C19.5589 80.7569 19.5454 80.7239 19.5442 80.6254C19.5429 80.5269 19.5555 80.4794 19.572 80.5198C19.5886 80.5602 19.5896 80.6408 19.5743 80.6989ZM19.5867 82.5203C19.5832 83.4149 19.5613 84.0661 19.5378 83.9676C19.5143 83.8692 19.5013 83.708 19.5088 83.6095C19.5163 83.5111 19.5247 82.8598 19.5275 82.1622C19.5301 81.4647 19.546 80.894 19.5626 80.894C19.5792 80.894 19.5901 81.6258 19.5867 82.5203ZM35.0567 81.3864C35.04 81.4274 35.0263 81.3938 35.0263 81.3118C35.0263 81.2297 35.04 81.1962 35.0567 81.2372C35.0736 81.2782 35.0736 81.3454 35.0567 81.3864ZM46.1385 83.4156C46.1323 84.1146 46.1219 84.2076 46.0801 83.9378C46.016 83.524 46.0261 82.5651 46.0947 82.5651C46.1229 82.5651 46.1427 82.9478 46.1385 83.4156ZM35.06 83.9229C35.0462 84.0131 35.0348 83.9393 35.0348 83.7588C35.0348 83.5782 35.0462 83.5044 35.06 83.5946C35.0739 83.6849 35.0739 83.8326 35.06 83.9229ZM120.664 84.0572C120.664 84.09 120.637 84.1168 120.604 84.1168C120.571 84.1168 120.543 84.09 120.543 84.0572C120.543 84.0243 120.571 83.9975 120.604 83.9975C120.637 83.9975 120.664 84.0243 120.664 84.0572ZM122.166 84.9106C122.218 84.9713 122.186 84.9911 122.023 85.0019C121.869 85.0121 121.814 84.9916 121.814 84.9244C121.814 84.8111 122.074 84.8009 122.166 84.9106ZM146.657 85.5853C146.637 85.6051 146.585 85.6072 146.541 85.59C146.493 85.571 146.507 85.5568 146.578 85.554C146.641 85.5514 146.677 85.5655 146.657 85.5853Z" fill="#4CAF50"/>
</svg>
