<svg width="65" height="54" viewBox="0 0 65 54" fill="none" xmlns="http://www.w3.org/2000/svg">
<path fill-rule="evenodd" clip-rule="evenodd" d="M39.0515 0.0891784C38.9954 0.139169 38.5799 0.340539 38.1283 0.536498C37.3521 0.873449 37.3038 0.914675 37.2442 1.28971C37.2096 1.50786 37.18 13.4564 37.1786 27.842L37.1762 53.9974L39.1907 53.968L41.2054 53.9385L41.2265 43.6069C41.2411 36.4871 41.2828 33.2634 41.3608 33.2372C41.423 33.2163 41.4739 33.1303 41.4739 33.046C41.4739 32.9484 41.589 32.8926 41.7904 32.8926C42.1207 32.8926 42.4361 32.7232 45.0434 31.1451C45.9136 30.6184 46.6508 30.1875 46.6817 30.1875C46.7125 30.1875 46.7377 35.5448 46.7377 42.0926V53.9976L48.6445 53.9681L50.5513 53.9385L50.605 37.6617L50.6588 21.3847L52.566 20.2407C53.615 19.6113 54.8587 18.8774 55.3297 18.6096L56.1861 18.1226L56.1887 14.8706L56.1911 11.6187L55.842 11.2875C55.5661 11.0258 53.5733 9.64618 51.7135 8.42941C51.5844 8.34501 50.6269 7.69167 49.5854 6.97752C48.544 6.26336 47.5022 5.55732 47.2705 5.40854C46.7473 5.07278 43.6848 3.01018 43.2464 2.69844C41.2884 1.30605 39.342 0.00391274 39.2126 1.73509e-05C39.1801 -0.000956495 39.1076 0.0391876 39.0515 0.0891784ZM35.9415 1.69765C35.5952 1.78021 34.1225 2.5067 34.0363 2.63763C33.9929 2.70352 33.9567 14.2871 33.9558 28.3788L33.9542 54L35.109 53.9693L36.2638 53.9385V27.78C36.2638 13.3928 36.2396 1.62699 36.2101 1.63391C36.1805 1.64084 36.0597 1.66951 35.9415 1.69765ZM31.6982 3.61526L30.6777 4.09071L30.6506 28.9749L30.6236 53.8591L30.8655 53.9244C30.9986 53.9603 31.5006 53.9904 31.9811 53.9911C32.797 53.9925 32.8592 53.9765 32.9197 53.7492C33.0058 53.4251 33.0065 3.9086 32.9202 3.47438C32.8832 3.28837 32.8229 3.1371 32.7859 3.13807C32.749 3.13905 32.2595 3.35384 31.6982 3.61526ZM28.4898 5.19365C27.4635 5.69074 27.3828 5.7522 27.4601 5.97662C27.57 6.29507 27.5695 4.03758 27.4656 30.5317L27.3739 53.8695L27.7367 53.9371C27.9362 53.9744 28.4621 53.9899 28.9052 53.9717L29.7109 53.9385L29.7354 29.2948C29.7489 15.7408 29.7247 4.65176 29.6817 4.65262C29.6387 4.65349 29.1023 4.89695 28.4898 5.19365ZM25.575 6.56309C25.25 6.71512 25.0446 6.86239 25.1184 6.89052C25.3518 6.97903 25.2637 7.1567 25.0034 7.1224C24.8663 7.10433 24.6246 7.17499 24.4663 7.27952L24.1785 7.46942V30.6749V53.8803L24.4202 53.9414C24.5532 53.9749 25.0728 53.988 25.575 53.9705L26.4881 53.9385L26.5118 30.1064C26.534 7.62837 26.5249 6.27451 26.3506 6.28046C26.249 6.28381 25.9 6.41106 25.575 6.56309ZM21.8434 8.36633L20.9584 8.81938L20.9393 31.379L20.9201 53.9385L21.9993 53.9693C22.9186 53.9953 23.0884 53.9736 23.1461 53.8223C23.2327 53.595 23.2328 8.29513 23.1461 8.06768C23.0494 7.81394 22.8191 7.86675 21.8434 8.36633ZM18.7267 9.90468L17.733 10.3903V32.1818V53.9734L18.8878 53.956L20.0426 53.9385L20.0556 32.027C20.0627 19.9757 20.0805 10.0668 20.0951 10.0073C20.1717 9.69585 20.0823 9.41235 19.9083 9.41559C19.8049 9.41743 19.2732 9.63763 18.7267 9.90468ZM56.0837 36.0731C56.0837 52.1937 56.0996 53.8675 56.2537 53.927C56.3471 53.9631 58.3533 53.9926 60.7118 53.9926H65L64.9992 41.4679C64.9986 29.7362 64.9867 28.9256 64.8113 28.6665C64.7083 28.5142 64.0222 27.6621 63.2867 26.7729C62.5513 25.8835 61.4742 24.5717 60.8935 23.8575C60.3127 23.1434 59.6576 22.3423 59.4377 22.0773C59.2178 21.8124 58.8971 21.3986 58.725 21.1576C58.1315 20.3267 56.3184 18.2953 56.1643 18.2885C56.1199 18.2866 56.0837 26.2896 56.0837 36.0731ZM15.648 21.1145C15.417 21.2371 13.6525 22.0621 11.7269 22.9476C9.80135 23.8332 8.00832 24.6734 7.74245 24.8147L7.25903 25.0716V25.9676C7.25903 26.6473 7.29792 26.8879 7.42017 26.9642C7.53726 27.0372 8.71056 26.5342 11.7172 25.1217C13.9919 24.053 15.9618 23.1455 16.0947 23.1051C16.3202 23.0363 16.3365 22.9709 16.3365 22.1278C16.3365 21.2465 16.277 20.877 16.137 20.8866C16.0989 20.8893 15.8789 20.9918 15.648 21.1145ZM15.1011 24.6708C14.6284 24.902 13.299 25.5255 12.1469 26.0565C10.9947 26.5873 9.61701 27.2271 9.08526 27.4782C8.5535 27.7292 7.94193 28.0066 7.72622 28.0947C7.27063 28.2806 7.20887 28.4432 7.20683 29.4605C7.20575 29.9949 7.24668 30.2103 7.35754 30.2532C7.53179 30.3205 7.94075 30.142 12.5683 27.9783C14.4249 27.1103 16.034 26.3178 16.1442 26.2175C16.3138 26.0628 16.3398 25.9011 16.3136 25.1638C16.2896 24.4872 16.2468 24.2881 16.1216 24.2716C16.033 24.2599 15.5737 24.4397 15.1011 24.6708ZM15.6382 27.7027C14.8581 28.0782 13.3004 28.8013 11.5023 29.6226C10.5274 30.0679 9.17388 30.6866 8.49442 30.9974L7.25903 31.5626L7.2281 32.4896C7.18126 33.8955 6.8144 33.9692 11.932 31.544C13.1432 30.9699 14.5693 30.2991 15.1011 30.0531C15.6328 29.8072 16.1284 29.5604 16.2022 29.5047C16.3423 29.3992 16.3952 27.9789 16.2712 27.6536C16.1914 27.444 16.1726 27.4454 15.6382 27.7027ZM15.1011 31.2068C14.3103 31.581 7.19963 34.867 2.90832 36.8412C1.51985 37.4799 0.33001 38.0462 0.264266 38.0996C0.113011 38.2223 -0.0258893 39.7072 0.0855105 40.0099C0.167691 40.2334 0.181978 40.2311 1.02838 39.8567C1.80012 39.5153 4.07377 38.4622 6.86844 37.1516C7.42157 36.8921 7.89467 36.6798 7.91959 36.6798C7.94451 36.6798 8.41031 36.4653 8.95474 36.2031C9.49917 35.9409 11.0807 35.1939 12.4691 34.5431C13.8576 33.8923 15.2953 33.2182 15.664 33.0451L16.3342 32.7303L16.3354 31.7835C16.3365 30.8714 16.3276 30.837 16.0947 30.8438C15.9618 30.8477 15.5146 31.011 15.1011 31.2068ZM15.1522 34.4559C12.9762 35.4714 8.71378 37.4373 7.74245 37.8733C7.18115 38.1253 6.67357 38.3671 6.61448 38.4105C6.46839 38.5179 2.18105 40.467 2.09092 40.467C2.05139 40.467 1.56475 40.6941 1.00958 40.9717L0 41.4764L0.0307239 42.4042C0.057043 43.1945 0.0900223 43.3375 0.253416 43.369C0.358907 43.3893 1.54327 42.8952 2.88533 42.2711C4.22739 41.647 5.80879 40.9192 6.39963 40.6538C6.99047 40.3884 7.7881 40.0199 8.17215 39.8349C8.55619 39.6497 10.5382 38.722 12.5766 37.773L16.2827 36.0477L16.314 35.1718C16.3595 33.8946 16.3576 33.8934 15.1522 34.4559ZM15.6382 37.4599C15.4019 37.5862 14.6042 37.9667 13.8657 38.3057C13.1271 38.6446 12.1603 39.0929 11.7172 39.3018C11.274 39.5108 9.36456 40.398 7.47388 41.2733C5.5832 42.1486 3.5287 43.1001 2.90832 43.3876C2.28794 43.675 1.45099 44.0427 1.04847 44.2046C0.107318 44.5832 -0.00988295 44.7661 0.0176179 45.8132C0.0362024 46.519 0.0659592 46.6347 0.22946 46.6347C0.457416 46.6347 0.850055 46.4676 2.96203 45.4721C3.84829 45.0544 6.70042 43.7278 9.30011 42.5242C11.8998 41.3206 14.4159 40.154 14.8916 39.9317C15.3672 39.7094 15.8869 39.4945 16.0464 39.4542L16.3365 39.3808V38.3008C16.3365 37.0968 16.3308 37.09 15.6382 37.4599ZM15.5095 40.7556C15.0072 41.0258 13.6444 41.6653 8.11843 44.2242C5.24159 45.5563 0.647021 47.66 0.249549 47.827C0.0280381 47.9201 0.00794965 47.9989 0.00934617 48.7695C0.0111724 49.8219 0.0788501 50.1009 0.313896 50.0248C0.5165 49.959 6.31069 47.2542 10.5355 45.253C12.1012 44.5115 13.9865 43.6381 14.7251 43.3121C15.4636 42.9863 16.1284 42.6694 16.2022 42.6081C16.291 42.5343 16.3365 42.1749 16.3365 41.5474C16.3365 40.4206 16.2631 40.3504 15.5095 40.7556ZM15.8504 43.8877C15.6746 43.9805 15.0232 44.2909 14.4028 44.5775C10.5497 46.3571 0.253953 51.2187 0.142124 51.3112C-0.0098829 51.4369 -0.048556 53.5191 0.0967901 53.7498C0.164038 53.8565 1.91174 53.8915 8.23263 53.9121L16.2827 53.9385L16.3107 48.9805C16.326 46.2536 16.3007 43.9542 16.2543 43.8707C16.1827 43.7418 16.1219 43.7443 15.8504 43.8877Z" fill="#4CAF50"/>
</svg>
