<?xml version="1.0" encoding="UTF-8"?>
<svg xmlns="http://www.w3.org/2000/svg" width="80" height="80" viewBox="0 0 80 80" fill="none">
  <path d="M53.75 5H26.25C23.4925 5 21.25 7.2425 21.25 10V70C21.25 72.7575 23.4925 75 26.25 75H53.75C56.5075 75 58.75 72.7575 58.75 70V10C58.75 7.2425 56.5075 5 53.75 5ZM23.75 17.5H56.25V62.5H23.75V17.5ZM26.25 7.5H53.75C55.1287 7.5 56.25 8.62125 56.25 10V15H23.75V10C23.75 8.62125 24.8712 7.5 26.25 7.5ZM53.75 72.5H26.25C24.8712 72.5 23.75 71.3788 23.75 70V65H56.25V70C56.25 71.3788 55.1287 72.5 53.75 72.5Z" fill="#1D1D1B"></path>
  <path d="M43.7501 67.5H36.2501C34.5976 67.5 34.5951 70 36.2501 70H43.7501C45.4051 70 45.4038 67.5 43.7501 67.5ZM38.7501 12.5H43.7501C45.4051 12.5 45.4038 10 43.7501 10H38.7501C37.0976 10 37.0951 12.5 38.7501 12.5ZM32.5001 12.5H33.7501C35.4026 12.5 35.4051 10 33.7501 10H32.5001C30.8476 10 30.8451 12.5 32.5001 12.5Z" fill="#1D1D1B"></path>
</svg>
