<?xml version="1.0" encoding="UTF-8"?>
<svg xmlns="http://www.w3.org/2000/svg" width="80" height="80" viewBox="0 0 80 80" fill="none">
  <path d="M61.25 47.5C56.2612 47.5 52.5 49.65 52.5 52.5V56.4337C50.9362 55.5387 48.7463 55 46.25 55C41.2613 55 37.5 57.15 37.5 60V70C37.5 76.1912 53.0112 76.7525 54.845 70.9688C59.8525 73.9975 70 72.375 70 67.5V52.5C70 49.65 66.2388 47.5 61.25 47.5ZM67.5 62.5C67.5 63.5187 65.065 65 61.25 65C57.435 65 55 63.5187 55 62.5V61.0663C58.345 62.9813 64.1513 62.9825 67.5 61.0663V62.5ZM40 63.5662C43.345 65.4813 49.1512 65.4825 52.5 63.5662V65C52.5 66.0187 50.065 67.5 46.25 67.5C42.435 67.5 40 66.0187 40 65V63.5662ZM67.5 57.5C67.5 58.5188 65.065 60 61.25 60C57.435 60 55 58.5188 55 57.5V56.0663C58.345 57.9813 64.1513 57.9825 67.5 56.0663V57.5ZM61.25 50C65.065 50 67.5 51.4813 67.5 52.5C67.5 53.5188 65.065 55 61.25 55C57.435 55 55 53.5188 55 52.5C55 51.4813 57.435 50 61.25 50ZM46.25 57.5C50.065 57.5 52.5 58.9812 52.5 60C52.5 61.0188 50.065 62.5 46.25 62.5C42.435 62.5 40 61.0188 40 60C40 58.9812 42.435 57.5 46.25 57.5ZM46.25 72.5C42.435 72.5 40 71.0187 40 70V68.5662C43.345 70.4813 49.1512 70.4825 52.5 68.5662V70C52.5 71.0187 50.065 72.5 46.25 72.5ZM61.25 70C57.435 70 55 68.5187 55 67.5V66.0662C58.345 67.9813 64.1513 67.9825 67.5 66.0662V67.5C67.5 68.5187 65.065 70 61.25 70Z" fill="#1D1D1B"></path>
  <path d="M33.75 65H12.5V7.5H55V45C55 46.655 57.5 46.6538 57.5 45V6.25C57.5 5.91848 57.3683 5.60054 57.1339 5.36612C56.8995 5.1317 56.5815 5 56.25 5H11.25C10.9185 5 10.6005 5.1317 10.3661 5.36612C10.1317 5.60054 10 5.91848 10 6.25V66.25C10 66.5815 10.1317 66.8995 10.3661 67.1339C10.6005 67.3683 10.9185 67.5 11.25 67.5H33.75C35.4037 67.5 35.405 65 33.75 65Z" fill="#1D1D1B"></path>
  <path d="M17.5 16.25V11.25C17.5 9.595 15 9.59625 15 11.25V16.25C15 17.905 17.5 17.9037 17.5 16.25ZM21.25 16.25V11.25C21.25 9.595 18.75 9.59625 18.75 11.25V16.25C18.75 17.905 21.25 17.9037 21.25 16.25ZM25 16.25V11.25C25 9.595 22.5 9.59625 22.5 11.25V16.25C22.5 17.905 25 17.9037 25 16.25ZM28.75 16.25V11.25C28.75 9.595 26.25 9.59625 26.25 11.25V16.25C26.25 17.905 28.75 17.9037 28.75 16.25ZM15 46.25C15 46.5815 15.1317 46.8995 15.3661 47.1339C15.6005 47.3683 15.9185 47.5 16.25 47.5H51.25C51.5815 47.5 51.8995 47.3683 52.1339 47.1339C52.3683 46.8995 52.5 46.5815 52.5 46.25V21.25C52.5 20.9185 52.3683 20.6005 52.1339 20.3661C51.8995 20.1317 51.5815 20 51.25 20H16.25C15.9185 20 15.6005 20.1317 15.3661 20.3661C15.1317 20.6005 15 20.9185 15 21.25V46.25ZM17.5 28.75H23.75V45H17.5V28.75ZM41.25 28.75V32.5H35V28.75H41.25ZM50 28.75V32.5H43.75V28.75H50ZM26.25 35H32.5V38.75H26.25V35ZM26.25 41.25H32.5V45H26.25V41.25ZM35 41.25H41.25V45H35V41.25ZM35 38.75V35H41.25V38.75H35ZM43.75 35H50V38.75H43.75V35ZM32.5 32.5H26.25V28.75H32.5V32.5ZM43.75 45V41.25H50V45H43.75ZM50 26.25H26.25V22.5H50V26.25ZM23.75 22.5V26.25H17.5V22.5H23.75ZM51.25 10H36.25C34.5963 10 34.595 12.5 36.25 12.5H51.25C52.9038 12.5 52.905 10 51.25 10ZM51.25 15H36.25C34.5963 15 34.595 17.5 36.25 17.5H51.25C52.9038 17.5 52.905 15 51.25 15ZM35 53.75H16.25C14.5963 53.75 14.595 56.25 16.25 56.25H35C36.6537 56.25 36.655 53.75 35 53.75ZM26.25 61.25C27.9037 61.25 27.905 58.75 26.25 58.75H16.25C14.5963 58.75 14.595 61.25 16.25 61.25H26.25Z" fill="#1D1D1B"></path>
</svg>
