<?xml version="1.0" encoding="UTF-8"?>
<svg xmlns="http://www.w3.org/2000/svg" width="162" height="106" viewBox="0 0 162 106" fill="none">
  <g clip-path="url(#clip0_209_1717)">
    <path d="M82.8461 77.9763H89.2263V43.3762H82.8461V77.9763ZM75.1931 77.9763H81.5722V35.6865H75.1931V77.9763ZM67.5413 77.9763H73.9192V43.3762H67.5413V77.9763Z" fill="#9E9E9E"></path>
    <path d="M104.527 39.5266L98.1534 45.9339V24.1296H104.532M96.8782 47.2127L90.4992 53.6247V16.4341H96.8782M82.8462 42.0937H89.2276V8.76195H82.8462V42.0937ZM75.1932 34.404H81.5699V1.07812H75.1932V34.404ZM67.5413 42.0937H73.9169V8.76195H67.5413V42.0937ZM66.2639 53.6236L59.886 47.2127V16.4341H66.2639M52.2341 24.1308V39.5266L58.6097 45.9362V24.1296M16.7433 85.871C19.9352 85.871 22.5437 88.4522 22.5437 91.6055V92.8363C22.5437 95.5183 20.655 97.783 18.1316 98.4019L23.3825 104.922H15.7995L10.6827 98.5707H7.58301V104.922H0V85.8734L16.7433 85.871ZM7.58301 94.1245H14.0262C14.9829 94.1245 15.7668 93.3509 15.7668 92.4049V92.038C15.7668 91.0885 14.9852 90.3172 14.0262 90.3172H7.58301M54.3819 104.919H65.1264C68.4279 104.919 71.131 102.207 71.131 98.8896C71.131 95.5687 68.4279 92.8562 65.1253 92.8562H57.6169C57.3467 92.8556 57.0876 92.7477 56.8962 92.556C56.7048 92.3643 56.5965 92.1044 56.5949 91.8329V91.3405C56.5949 90.7779 57.0534 90.3172 57.6169 90.3172H62.5249C63.0872 90.3172 63.5457 90.7779 63.5457 91.3405V91.5844H71.1217C70.9537 88.4135 68.3218 85.8722 65.1253 85.8722H54.3819C51.0827 85.8722 48.3785 88.5847 48.3785 91.9044C48.3785 95.2217 51.0827 97.9354 54.3819 97.9354H61.8949C62.4549 97.9354 62.9157 98.3961 62.9157 98.9611V99.451C62.9141 99.7228 62.8059 99.983 62.6146 100.175C62.4232 100.367 62.1642 100.475 61.8937 100.477H56.9834C56.713 100.476 56.4539 100.367 56.2626 100.175C56.0714 99.9831 55.9636 99.7228 55.9626 99.451V99.2072H48.3878C48.5535 102.375 51.1877 104.919 54.3819 104.919ZM88.8251 104.921H96.4069V85.8722H88.8251V96.8511L79.9763 85.8722H72.3944V104.921H79.9775V93.9405M119.715 104.919H127.299V97.933H138.662V92.855L127.299 92.8234V90.9514H140.084V85.8722H119.715M23.3872 95.3694C23.3872 101.609 27.4447 104.921 35.4617 104.921C43.4787 104.921 47.5373 101.609 47.5373 95.3694C47.5373 89.1286 43.4787 85.8722 35.4617 85.8722C27.4447 85.8722 23.3872 89.1286 23.3872 95.3694ZM35.4617 90.316C37.9256 90.316 39.9391 92.038 39.9391 94.148V96.6448C39.9391 98.7524 37.9256 100.478 35.4617 100.478C33.0001 100.478 30.9842 98.7524 30.9842 96.6448V94.148C30.9842 92.038 33.0001 90.316 35.4617 90.316ZM97.8839 104.921H118.872V99.8414H105.466V97.9354H116.827V92.8562L105.466 92.8245V90.9514H118.251V85.8722H97.8839M147.766 104.921H155.351V90.9514H162V85.8734H140.926V90.9514H147.766" fill="#9E9E9E"></path>
  </g>
  <defs>
    <clipPath id="clip0_209_1717">
      <rect width="162" height="106" fill="white"></rect>
    </clipPath>
  </defs>
</svg>
