<?xml version="1.0" encoding="UTF-8"?>
<svg xmlns="http://www.w3.org/2000/svg" width="80" height="80" viewBox="0 0 80 80" fill="none">
  <path d="M73.7501 62.5H66.2501V49.8737C67.6605 49.5835 68.9278 48.816 69.8385 47.7006C70.7492 46.5852 71.2477 45.19 71.2501 43.75C71.2501 43.305 71.3163 44.4175 69.9963 27.4038C69.9721 27.0898 69.8303 26.7966 69.5992 26.5827C69.3682 26.3688 69.0649 26.25 68.7501 26.25H61.2501C60.9352 26.25 60.632 26.3688 60.4009 26.5827C60.1699 26.7966 60.0281 27.0898 60.0038 27.4038C59.0676 39.4775 58.7501 43.3288 58.7501 43.75C58.7524 45.19 59.2509 46.5852 60.1616 47.7006C61.0724 48.816 62.3397 49.5835 63.7501 49.8737V62.5H48.7501V49.8737C50.1605 49.5835 51.4278 48.816 52.3385 47.7006C53.2492 46.5852 53.7477 45.19 53.7501 43.75C53.7501 43.305 53.8163 44.4175 52.4963 27.4038C52.4721 27.0898 52.3303 26.7966 52.0992 26.5827C51.8682 26.3688 51.5649 26.25 51.2501 26.25H43.7501C43.4352 26.25 43.132 26.3688 42.9009 26.5827C42.6699 26.7966 42.5281 27.0898 42.5038 27.4038C41.5676 39.4775 41.2501 43.3288 41.2501 43.75C41.2524 45.19 41.7509 46.5852 42.6617 47.7006C43.5724 48.816 44.8397 49.5835 46.2501 49.8737V62.5H36.2501V47.9863C36.2501 38.2288 28.7501 34.5662 28.7501 25.765V17.5C29.0816 17.5 29.3995 17.3683 29.634 17.1339C29.8684 16.8995 30.0001 16.5815 30.0001 16.25V11.25C30.0001 10.9185 29.8684 10.6005 29.634 10.3661C29.3995 10.1317 29.0816 10 28.7501 10H21.2501C20.9186 10 20.6006 10.1317 20.3662 10.3661C20.1318 10.6005 20.0001 10.9185 20.0001 11.25V16.25C20.0001 16.5815 20.1318 16.8995 20.3662 17.1339C20.6006 17.3683 20.9186 17.5 21.2501 17.5V25.7638C21.2501 34.4587 13.7501 38.3063 13.7501 47.985V62.5H6.25008C4.59758 62.5 4.59508 65 6.25008 65H9.22758L11.3826 69.3087C11.4861 69.5165 11.6455 69.6913 11.8429 69.8134C12.0404 69.9356 12.2679 70.0002 12.5001 70H67.5001C67.9738 70 68.4063 69.7325 68.6188 69.3087L70.7726 65H73.7501C75.4038 65 75.4051 62.5 73.7501 62.5ZM67.5938 28.75L68.1776 36.25H61.8226L62.4063 28.75H67.5938ZM61.2501 43.75C61.2501 43.495 61.2363 43.7663 61.6276 38.75H68.3713C68.7851 44.1225 68.7501 43.4562 68.7501 43.75C68.7501 45.8175 67.0676 47.5 65.0001 47.5C62.9326 47.5 61.2501 45.8175 61.2501 43.75ZM50.0938 28.75L50.6776 36.25H44.3226L44.9063 28.75H50.0938ZM43.7501 43.75C43.7501 43.495 43.7363 43.7663 44.1276 38.75H50.8713C51.2851 44.1225 51.2501 43.4562 51.2501 43.75C51.2501 45.8175 49.5676 47.5 47.5001 47.5C45.4326 47.5 43.7501 45.8175 43.7501 43.75ZM22.5001 12.5H27.5001V15H22.5001V12.5ZM26.2501 17.5V23.75H23.7501V17.5H26.2501ZM16.2501 47.9863C16.2501 39.21 23.4588 35.7113 23.7201 26.25H26.2813C26.5401 35.6437 33.7501 39.2588 33.7501 47.9863V62.5H16.2501V47.9863ZM66.7276 67.5H13.2726L12.0226 65H67.9776L66.7276 67.5Z" fill="#1D1D1B"></path>
  <path d="M30 47.5H20C19.6685 47.5 19.3505 47.6317 19.1161 47.8661C18.8817 48.1005 18.75 48.4185 18.75 48.75V58.75C18.75 59.0815 18.8817 59.3995 19.1161 59.6339C19.3505 59.8683 19.6685 60 20 60H30C30.3315 60 30.6495 59.8683 30.8839 59.6339C31.1183 59.3995 31.25 59.0815 31.25 58.75V48.75C31.25 48.4185 31.1183 48.1005 30.8839 47.8661C30.6495 47.6317 30.3315 47.5 30 47.5ZM28.75 57.5H21.25V50H28.75V57.5Z" fill="#1D1D1B"></path>
</svg>
